<?xml version="1.0" encoding="utf-8" standalone="no"?>
<!DOCTYPE svg PUBLIC "-//W3C//DTD SVG 1.1//EN"
  "http://www.w3.org/Graphics/SVG/1.1/DTD/svg11.dtd">
<!-- Created with matplotlib (http://matplotlib.org/) -->
<svg height="270pt" version="1.1" viewBox="0 0 864 270" width="864pt" xmlns="http://www.w3.org/2000/svg" xmlns:xlink="http://www.w3.org/1999/xlink">
 <defs>
  <style type="text/css">
*{stroke-linecap:butt;stroke-linejoin:round;stroke-miterlimit:100000;}
  </style>
 </defs>
 <g id="figure_1">
  <g id="patch_1">
   <path d="M 0 270 
L 864 270 
L 864 0 
L 0 0 
z
" style="fill:#ffffff;"/>
  </g>
  <g id="axes_1">
   <g id="patch_2">
    <path d="M 108 243 
L 777.6 243 
L 777.6 27 
L 108 27 
z
" style="fill:#ffffff;"/>
   </g>
   <g id="matplotlib.axis_1">
    <g id="xtick_1">
     <g id="line2d_1">
      <path clip-path="url(#pba7017748e)" d="M 199.248053 243 
L 199.248053 27 
" style="fill:none;stroke:#ffffff;stroke-linecap:round;"/>
     </g>
     <g id="line2d_2">
      <defs>
       <path d="M 0 0 
L 0 0 
" id="mc51b78af54" style="stroke:#262626;"/>
      </defs>
      <g>
       <use style="fill:#262626;stroke:#262626;" x="199.248052788" xlink:href="#mc51b78af54" y="243.0"/>
      </g>
     </g>
     <g id="line2d_3">
      <g>
       <use style="fill:#262626;stroke:#262626;" x="199.248052788" xlink:href="#mc51b78af54" y="27.0"/>
      </g>
     </g>
     <g id="text_1">
      <!-- 3400000 -->
      <defs>
       <path d="M 4.15625 35.296875 
Q 4.15625 48 6.765625 55.734375 
Q 9.375 63.484375 14.515625 67.671875 
Q 19.671875 71.875 27.484375 71.875 
Q 33.25 71.875 37.59375 69.546875 
Q 41.9375 67.234375 44.765625 62.859375 
Q 47.609375 58.5 49.21875 52.21875 
Q 50.828125 45.953125 50.828125 35.296875 
Q 50.828125 22.703125 48.234375 14.96875 
Q 45.65625 7.234375 40.5 3 
Q 35.359375 -1.21875 27.484375 -1.21875 
Q 17.140625 -1.21875 11.234375 6.203125 
Q 4.15625 15.140625 4.15625 35.296875 
M 13.1875 35.296875 
Q 13.1875 17.671875 17.3125 11.828125 
Q 21.4375 6 27.484375 6 
Q 33.546875 6 37.671875 11.859375 
Q 41.796875 17.71875 41.796875 35.296875 
Q 41.796875 52.984375 37.671875 58.78125 
Q 33.546875 64.59375 27.390625 64.59375 
Q 21.34375 64.59375 17.71875 59.46875 
Q 13.1875 52.9375 13.1875 35.296875 
" id="ArialMT-30"/>
       <path d="M 4.203125 18.890625 
L 12.984375 20.0625 
Q 14.5 12.59375 18.140625 9.296875 
Q 21.78125 6 27 6 
Q 33.203125 6 37.46875 10.296875 
Q 41.75 14.59375 41.75 20.953125 
Q 41.75 27 37.796875 30.921875 
Q 33.84375 34.859375 27.734375 34.859375 
Q 25.25 34.859375 21.53125 33.890625 
L 22.515625 41.609375 
Q 23.390625 41.5 23.921875 41.5 
Q 29.546875 41.5 34.03125 44.421875 
Q 38.53125 47.359375 38.53125 53.46875 
Q 38.53125 58.296875 35.25 61.46875 
Q 31.984375 64.65625 26.8125 64.65625 
Q 21.6875 64.65625 18.265625 61.421875 
Q 14.84375 58.203125 13.875 51.765625 
L 5.078125 53.328125 
Q 6.6875 62.15625 12.390625 67.015625 
Q 18.109375 71.875 26.609375 71.875 
Q 32.46875 71.875 37.390625 69.359375 
Q 42.328125 66.84375 44.9375 62.5 
Q 47.5625 58.15625 47.5625 53.265625 
Q 47.5625 48.640625 45.0625 44.828125 
Q 42.578125 41.015625 37.703125 38.765625 
Q 44.046875 37.3125 47.5625 32.6875 
Q 51.078125 28.078125 51.078125 21.140625 
Q 51.078125 11.765625 44.234375 5.25 
Q 37.40625 -1.265625 26.953125 -1.265625 
Q 17.53125 -1.265625 11.296875 4.34375 
Q 5.078125 9.96875 4.203125 18.890625 
" id="ArialMT-33"/>
       <path d="M 32.328125 0 
L 32.328125 17.140625 
L 1.265625 17.140625 
L 1.265625 25.203125 
L 33.9375 71.578125 
L 41.109375 71.578125 
L 41.109375 25.203125 
L 50.78125 25.203125 
L 50.78125 17.140625 
L 41.109375 17.140625 
L 41.109375 0 
z
M 32.328125 25.203125 
L 32.328125 57.46875 
L 9.90625 25.203125 
z
" id="ArialMT-34"/>
      </defs>
      <g style="fill:#262626;" transform="translate(168.106802788 261.4525)scale(0.16 -0.16)">
       <use xlink:href="#ArialMT-33"/>
       <use x="55.615234375" xlink:href="#ArialMT-34"/>
       <use x="111.23046875" xlink:href="#ArialMT-30"/>
       <use x="166.845703125" xlink:href="#ArialMT-30"/>
       <use x="222.4609375" xlink:href="#ArialMT-30"/>
       <use x="278.076171875" xlink:href="#ArialMT-30"/>
       <use x="333.69140625" xlink:href="#ArialMT-30"/>
      </g>
     </g>
    </g>
    <g id="xtick_2">
     <g id="line2d_4">
      <path clip-path="url(#pba7017748e)" d="M 307.541493 243 
L 307.541493 27 
" style="fill:none;stroke:#ffffff;stroke-linecap:round;"/>
     </g>
     <g id="line2d_5">
      <g>
       <use style="fill:#262626;stroke:#262626;" x="307.541493078" xlink:href="#mc51b78af54" y="243.0"/>
      </g>
     </g>
     <g id="line2d_6">
      <g>
       <use style="fill:#262626;stroke:#262626;" x="307.541493078" xlink:href="#mc51b78af54" y="27.0"/>
      </g>
     </g>
     <g id="text_2">
      <!-- 3420000 -->
      <defs>
       <path d="M 50.34375 8.453125 
L 50.34375 0 
L 3.03125 0 
Q 2.9375 3.171875 4.046875 6.109375 
Q 5.859375 10.9375 9.828125 15.625 
Q 13.8125 20.3125 21.34375 26.46875 
Q 33.015625 36.03125 37.109375 41.625 
Q 41.21875 47.21875 41.21875 52.203125 
Q 41.21875 57.421875 37.46875 61 
Q 33.734375 64.59375 27.734375 64.59375 
Q 21.390625 64.59375 17.578125 60.78125 
Q 13.765625 56.984375 13.71875 50.25 
L 4.6875 51.171875 
Q 5.609375 61.28125 11.65625 66.578125 
Q 17.71875 71.875 27.9375 71.875 
Q 38.234375 71.875 44.234375 66.15625 
Q 50.25 60.453125 50.25 52 
Q 50.25 47.703125 48.484375 43.546875 
Q 46.734375 39.40625 42.65625 34.8125 
Q 38.578125 30.21875 29.109375 22.21875 
Q 21.1875 15.578125 18.9375 13.203125 
Q 16.703125 10.84375 15.234375 8.453125 
z
" id="ArialMT-32"/>
      </defs>
      <g style="fill:#262626;" transform="translate(276.400243078 261.4525)scale(0.16 -0.16)">
       <use xlink:href="#ArialMT-33"/>
       <use x="55.615234375" xlink:href="#ArialMT-34"/>
       <use x="111.23046875" xlink:href="#ArialMT-32"/>
       <use x="166.845703125" xlink:href="#ArialMT-30"/>
       <use x="222.4609375" xlink:href="#ArialMT-30"/>
       <use x="278.076171875" xlink:href="#ArialMT-30"/>
       <use x="333.69140625" xlink:href="#ArialMT-30"/>
      </g>
     </g>
    </g>
    <g id="xtick_3">
     <g id="line2d_7">
      <path clip-path="url(#pba7017748e)" d="M 415.834933 243 
L 415.834933 27 
" style="fill:none;stroke:#ffffff;stroke-linecap:round;"/>
     </g>
     <g id="line2d_8">
      <g>
       <use style="fill:#262626;stroke:#262626;" x="415.834933368" xlink:href="#mc51b78af54" y="243.0"/>
      </g>
     </g>
     <g id="line2d_9">
      <g>
       <use style="fill:#262626;stroke:#262626;" x="415.834933368" xlink:href="#mc51b78af54" y="27.0"/>
      </g>
     </g>
     <g id="text_3">
      <!-- 3440000 -->
      <g style="fill:#262626;" transform="translate(384.693683368 261.4525)scale(0.16 -0.16)">
       <use xlink:href="#ArialMT-33"/>
       <use x="55.615234375" xlink:href="#ArialMT-34"/>
       <use x="111.23046875" xlink:href="#ArialMT-34"/>
       <use x="166.845703125" xlink:href="#ArialMT-30"/>
       <use x="222.4609375" xlink:href="#ArialMT-30"/>
       <use x="278.076171875" xlink:href="#ArialMT-30"/>
       <use x="333.69140625" xlink:href="#ArialMT-30"/>
      </g>
     </g>
    </g>
    <g id="xtick_4">
     <g id="line2d_10">
      <path clip-path="url(#pba7017748e)" d="M 524.128374 243 
L 524.128374 27 
" style="fill:none;stroke:#ffffff;stroke-linecap:round;"/>
     </g>
     <g id="line2d_11">
      <g>
       <use style="fill:#262626;stroke:#262626;" x="524.128373658" xlink:href="#mc51b78af54" y="243.0"/>
      </g>
     </g>
     <g id="line2d_12">
      <g>
       <use style="fill:#262626;stroke:#262626;" x="524.128373658" xlink:href="#mc51b78af54" y="27.0"/>
      </g>
     </g>
     <g id="text_4">
      <!-- 3460000 -->
      <defs>
       <path d="M 49.75 54.046875 
L 41.015625 53.375 
Q 39.84375 58.546875 37.703125 60.890625 
Q 34.125 64.65625 28.90625 64.65625 
Q 24.703125 64.65625 21.53125 62.3125 
Q 17.390625 59.28125 14.984375 53.46875 
Q 12.59375 47.65625 12.5 36.921875 
Q 15.671875 41.75 20.265625 44.09375 
Q 24.859375 46.4375 29.890625 46.4375 
Q 38.671875 46.4375 44.84375 39.96875 
Q 51.03125 33.5 51.03125 23.25 
Q 51.03125 16.5 48.125 10.71875 
Q 45.21875 4.9375 40.140625 1.859375 
Q 35.0625 -1.21875 28.609375 -1.21875 
Q 17.625 -1.21875 10.6875 6.859375 
Q 3.765625 14.9375 3.765625 33.5 
Q 3.765625 54.25 11.421875 63.671875 
Q 18.109375 71.875 29.4375 71.875 
Q 37.890625 71.875 43.28125 67.140625 
Q 48.6875 62.40625 49.75 54.046875 
M 13.875 23.1875 
Q 13.875 18.65625 15.796875 14.5 
Q 17.71875 10.359375 21.1875 8.171875 
Q 24.65625 6 28.46875 6 
Q 34.03125 6 38.03125 10.484375 
Q 42.046875 14.984375 42.046875 22.703125 
Q 42.046875 30.125 38.078125 34.390625 
Q 34.125 38.671875 28.125 38.671875 
Q 22.171875 38.671875 18.015625 34.390625 
Q 13.875 30.125 13.875 23.1875 
" id="ArialMT-36"/>
      </defs>
      <g style="fill:#262626;" transform="translate(492.987123658 261.4525)scale(0.16 -0.16)">
       <use xlink:href="#ArialMT-33"/>
       <use x="55.615234375" xlink:href="#ArialMT-34"/>
       <use x="111.23046875" xlink:href="#ArialMT-36"/>
       <use x="166.845703125" xlink:href="#ArialMT-30"/>
       <use x="222.4609375" xlink:href="#ArialMT-30"/>
       <use x="278.076171875" xlink:href="#ArialMT-30"/>
       <use x="333.69140625" xlink:href="#ArialMT-30"/>
      </g>
     </g>
    </g>
    <g id="xtick_5">
     <g id="line2d_13">
      <path clip-path="url(#pba7017748e)" d="M 632.421814 243 
L 632.421814 27 
" style="fill:none;stroke:#ffffff;stroke-linecap:round;"/>
     </g>
     <g id="line2d_14">
      <g>
       <use style="fill:#262626;stroke:#262626;" x="632.421813947" xlink:href="#mc51b78af54" y="243.0"/>
      </g>
     </g>
     <g id="line2d_15">
      <g>
       <use style="fill:#262626;stroke:#262626;" x="632.421813947" xlink:href="#mc51b78af54" y="27.0"/>
      </g>
     </g>
     <g id="text_5">
      <!-- 3480000 -->
      <defs>
       <path d="M 17.671875 38.8125 
Q 12.203125 40.828125 9.5625 44.53125 
Q 6.9375 48.25 6.9375 53.421875 
Q 6.9375 61.234375 12.546875 66.546875 
Q 18.171875 71.875 27.484375 71.875 
Q 36.859375 71.875 42.578125 66.421875 
Q 48.296875 60.984375 48.296875 53.171875 
Q 48.296875 48.1875 45.671875 44.5 
Q 43.0625 40.828125 37.75 38.8125 
Q 44.34375 36.671875 47.78125 31.875 
Q 51.21875 27.09375 51.21875 20.453125 
Q 51.21875 11.28125 44.71875 5.03125 
Q 38.234375 -1.21875 27.640625 -1.21875 
Q 17.046875 -1.21875 10.546875 5.046875 
Q 4.046875 11.328125 4.046875 20.703125 
Q 4.046875 27.6875 7.59375 32.390625 
Q 11.140625 37.109375 17.671875 38.8125 
M 15.921875 53.71875 
Q 15.921875 48.640625 19.1875 45.40625 
Q 22.46875 42.1875 27.6875 42.1875 
Q 32.765625 42.1875 36.015625 45.375 
Q 39.265625 48.578125 39.265625 53.21875 
Q 39.265625 58.0625 35.90625 61.359375 
Q 32.5625 64.65625 27.59375 64.65625 
Q 22.5625 64.65625 19.234375 61.421875 
Q 15.921875 58.203125 15.921875 53.71875 
M 13.09375 20.65625 
Q 13.09375 16.890625 14.875 13.375 
Q 16.65625 9.859375 20.171875 7.921875 
Q 23.6875 6 27.734375 6 
Q 34.03125 6 38.125 10.046875 
Q 42.234375 14.109375 42.234375 20.359375 
Q 42.234375 26.703125 38.015625 30.859375 
Q 33.796875 35.015625 27.4375 35.015625 
Q 21.234375 35.015625 17.15625 30.90625 
Q 13.09375 26.8125 13.09375 20.65625 
" id="ArialMT-38"/>
      </defs>
      <g style="fill:#262626;" transform="translate(601.280563947 261.4525)scale(0.16 -0.16)">
       <use xlink:href="#ArialMT-33"/>
       <use x="55.615234375" xlink:href="#ArialMT-34"/>
       <use x="111.23046875" xlink:href="#ArialMT-38"/>
       <use x="166.845703125" xlink:href="#ArialMT-30"/>
       <use x="222.4609375" xlink:href="#ArialMT-30"/>
       <use x="278.076171875" xlink:href="#ArialMT-30"/>
       <use x="333.69140625" xlink:href="#ArialMT-30"/>
      </g>
     </g>
    </g>
    <g id="xtick_6">
     <g id="line2d_16">
      <path clip-path="url(#pba7017748e)" d="M 740.715254 243 
L 740.715254 27 
" style="fill:none;stroke:#ffffff;stroke-linecap:round;"/>
     </g>
     <g id="line2d_17">
      <g>
       <use style="fill:#262626;stroke:#262626;" x="740.715254237" xlink:href="#mc51b78af54" y="243.0"/>
      </g>
     </g>
     <g id="line2d_18">
      <g>
       <use style="fill:#262626;stroke:#262626;" x="740.715254237" xlink:href="#mc51b78af54" y="27.0"/>
      </g>
     </g>
     <g id="text_6">
      <!-- 3500000 -->
      <defs>
       <path d="M 4.15625 18.75 
L 13.375 19.53125 
Q 14.40625 12.796875 18.140625 9.390625 
Q 21.875 6 27.15625 6 
Q 33.5 6 37.890625 10.78125 
Q 42.28125 15.578125 42.28125 23.484375 
Q 42.28125 31 38.0625 35.34375 
Q 33.84375 39.703125 27 39.703125 
Q 22.75 39.703125 19.328125 37.765625 
Q 15.921875 35.84375 13.96875 32.765625 
L 5.71875 33.84375 
L 12.640625 70.609375 
L 48.25 70.609375 
L 48.25 62.203125 
L 19.671875 62.203125 
L 15.828125 42.96875 
Q 22.265625 47.46875 29.34375 47.46875 
Q 38.71875 47.46875 45.15625 40.96875 
Q 51.609375 34.46875 51.609375 24.265625 
Q 51.609375 14.546875 45.953125 7.46875 
Q 39.0625 -1.21875 27.15625 -1.21875 
Q 17.390625 -1.21875 11.203125 4.25 
Q 5.03125 9.71875 4.15625 18.75 
" id="ArialMT-35"/>
      </defs>
      <g style="fill:#262626;" transform="translate(709.574004237 261.4525)scale(0.16 -0.16)">
       <use xlink:href="#ArialMT-33"/>
       <use x="55.615234375" xlink:href="#ArialMT-35"/>
       <use x="111.23046875" xlink:href="#ArialMT-30"/>
       <use x="166.845703125" xlink:href="#ArialMT-30"/>
       <use x="222.4609375" xlink:href="#ArialMT-30"/>
       <use x="278.076171875" xlink:href="#ArialMT-30"/>
       <use x="333.69140625" xlink:href="#ArialMT-30"/>
      </g>
     </g>
    </g>
   </g>
   <g id="matplotlib.axis_2">
    <g id="ytick_1">
     <g id="line2d_19">
      <path clip-path="url(#pba7017748e)" d="M 108 243 
L 777.6 243 
" style="fill:none;stroke:#ffffff;stroke-linecap:round;"/>
     </g>
     <g id="line2d_20">
      <g>
       <use style="fill:#262626;stroke:#262626;" x="108.0" xlink:href="#mc51b78af54" y="243.0"/>
      </g>
     </g>
     <g id="line2d_21">
      <g>
       <use style="fill:#262626;stroke:#262626;" x="777.6" xlink:href="#mc51b78af54" y="243.0"/>
      </g>
     </g>
     <g id="text_7">
      <!-- 0 -->
      <g style="fill:#262626;" transform="translate(92.1025 247.13625)scale(0.16 -0.16)">
       <use xlink:href="#ArialMT-30"/>
      </g>
     </g>
    </g>
    <g id="ytick_2">
     <g id="line2d_22">
      <path clip-path="url(#pba7017748e)" d="M 108 212.142857 
L 777.6 212.142857 
" style="fill:none;stroke:#ffffff;stroke-linecap:round;"/>
     </g>
     <g id="line2d_23">
      <g>
       <use style="fill:#262626;stroke:#262626;" x="108.0" xlink:href="#mc51b78af54" y="212.142857143"/>
      </g>
     </g>
     <g id="line2d_24">
      <g>
       <use style="fill:#262626;stroke:#262626;" x="777.6" xlink:href="#mc51b78af54" y="212.142857143"/>
      </g>
     </g>
     <g id="text_8">
      <!-- 2 -->
      <g style="fill:#262626;" transform="translate(92.1025 216.279107143)scale(0.16 -0.16)">
       <use xlink:href="#ArialMT-32"/>
      </g>
     </g>
    </g>
    <g id="ytick_3">
     <g id="line2d_25">
      <path clip-path="url(#pba7017748e)" d="M 108 181.285714 
L 777.6 181.285714 
" style="fill:none;stroke:#ffffff;stroke-linecap:round;"/>
     </g>
     <g id="line2d_26">
      <g>
       <use style="fill:#262626;stroke:#262626;" x="108.0" xlink:href="#mc51b78af54" y="181.285714286"/>
      </g>
     </g>
     <g id="line2d_27">
      <g>
       <use style="fill:#262626;stroke:#262626;" x="777.6" xlink:href="#mc51b78af54" y="181.285714286"/>
      </g>
     </g>
     <g id="text_9">
      <!-- 4 -->
      <g style="fill:#262626;" transform="translate(92.1025 185.421964286)scale(0.16 -0.16)">
       <use xlink:href="#ArialMT-34"/>
      </g>
     </g>
    </g>
    <g id="ytick_4">
     <g id="line2d_28">
      <path clip-path="url(#pba7017748e)" d="M 108 150.428571 
L 777.6 150.428571 
" style="fill:none;stroke:#ffffff;stroke-linecap:round;"/>
     </g>
     <g id="line2d_29">
      <g>
       <use style="fill:#262626;stroke:#262626;" x="108.0" xlink:href="#mc51b78af54" y="150.428571429"/>
      </g>
     </g>
     <g id="line2d_30">
      <g>
       <use style="fill:#262626;stroke:#262626;" x="777.6" xlink:href="#mc51b78af54" y="150.428571429"/>
      </g>
     </g>
     <g id="text_10">
      <!-- 6 -->
      <g style="fill:#262626;" transform="translate(92.1025 154.564821429)scale(0.16 -0.16)">
       <use xlink:href="#ArialMT-36"/>
      </g>
     </g>
    </g>
    <g id="ytick_5">
     <g id="line2d_31">
      <path clip-path="url(#pba7017748e)" d="M 108 119.571429 
L 777.6 119.571429 
" style="fill:none;stroke:#ffffff;stroke-linecap:round;"/>
     </g>
     <g id="line2d_32">
      <g>
       <use style="fill:#262626;stroke:#262626;" x="108.0" xlink:href="#mc51b78af54" y="119.571428571"/>
      </g>
     </g>
     <g id="line2d_33">
      <g>
       <use style="fill:#262626;stroke:#262626;" x="777.6" xlink:href="#mc51b78af54" y="119.571428571"/>
      </g>
     </g>
     <g id="text_11">
      <!-- 8 -->
      <g style="fill:#262626;" transform="translate(92.1025 123.707678571)scale(0.16 -0.16)">
       <use xlink:href="#ArialMT-38"/>
      </g>
     </g>
    </g>
    <g id="ytick_6">
     <g id="line2d_34">
      <path clip-path="url(#pba7017748e)" d="M 108 88.714286 
L 777.6 88.714286 
" style="fill:none;stroke:#ffffff;stroke-linecap:round;"/>
     </g>
     <g id="line2d_35">
      <g>
       <use style="fill:#262626;stroke:#262626;" x="108.0" xlink:href="#mc51b78af54" y="88.7142857143"/>
      </g>
     </g>
     <g id="line2d_36">
      <g>
       <use style="fill:#262626;stroke:#262626;" x="777.6" xlink:href="#mc51b78af54" y="88.7142857143"/>
      </g>
     </g>
     <g id="text_12">
      <!-- 10 -->
      <defs>
       <path d="M 37.25 0 
L 28.46875 0 
L 28.46875 56 
Q 25.296875 52.984375 20.140625 49.953125 
Q 14.984375 46.921875 10.890625 45.40625 
L 10.890625 53.90625 
Q 18.265625 57.375 23.78125 62.296875 
Q 29.296875 67.234375 31.59375 71.875 
L 37.25 71.875 
z
" id="ArialMT-31"/>
      </defs>
      <g style="fill:#262626;" transform="translate(83.205 92.8505357143)scale(0.16 -0.16)">
       <use xlink:href="#ArialMT-31"/>
       <use x="55.615234375" xlink:href="#ArialMT-30"/>
      </g>
     </g>
    </g>
    <g id="ytick_7">
     <g id="line2d_37">
      <path clip-path="url(#pba7017748e)" d="M 108 57.857143 
L 777.6 57.857143 
" style="fill:none;stroke:#ffffff;stroke-linecap:round;"/>
     </g>
     <g id="line2d_38">
      <g>
       <use style="fill:#262626;stroke:#262626;" x="108.0" xlink:href="#mc51b78af54" y="57.8571428571"/>
      </g>
     </g>
     <g id="line2d_39">
      <g>
       <use style="fill:#262626;stroke:#262626;" x="777.6" xlink:href="#mc51b78af54" y="57.8571428571"/>
      </g>
     </g>
     <g id="text_13">
      <!-- 12 -->
      <g style="fill:#262626;" transform="translate(83.205 61.9933928571)scale(0.16 -0.16)">
       <use xlink:href="#ArialMT-31"/>
       <use x="55.615234375" xlink:href="#ArialMT-32"/>
      </g>
     </g>
    </g>
    <g id="ytick_8">
     <g id="line2d_40">
      <path clip-path="url(#pba7017748e)" d="M 108 27 
L 777.6 27 
" style="fill:none;stroke:#ffffff;stroke-linecap:round;"/>
     </g>
     <g id="line2d_41">
      <g>
       <use style="fill:#262626;stroke:#262626;" x="108.0" xlink:href="#mc51b78af54" y="27.0"/>
      </g>
     </g>
     <g id="line2d_42">
      <g>
       <use style="fill:#262626;stroke:#262626;" x="777.6" xlink:href="#mc51b78af54" y="27.0"/>
      </g>
     </g>
     <g id="text_14">
      <!-- 14 -->
      <g style="fill:#262626;" transform="translate(83.205 31.13625)scale(0.16 -0.16)">
       <use xlink:href="#ArialMT-31"/>
       <use x="55.615234375" xlink:href="#ArialMT-34"/>
      </g>
     </g>
    </g>
    <g id="text_15">
     <!-- -log10(pvalue) -->
     <defs>
      <path d="M 40.4375 6.390625 
Q 35.546875 2.25 31.03125 0.53125 
Q 26.515625 -1.171875 21.34375 -1.171875 
Q 12.796875 -1.171875 8.203125 3 
Q 3.609375 7.171875 3.609375 13.671875 
Q 3.609375 17.484375 5.34375 20.625 
Q 7.078125 23.78125 9.890625 25.6875 
Q 12.703125 27.59375 16.21875 28.5625 
Q 18.796875 29.25 24.03125 29.890625 
Q 34.671875 31.15625 39.703125 32.90625 
Q 39.75 34.71875 39.75 35.203125 
Q 39.75 40.578125 37.25 42.78125 
Q 33.890625 45.75 27.25 45.75 
Q 21.046875 45.75 18.09375 43.578125 
Q 15.140625 41.40625 13.71875 35.890625 
L 5.125 37.0625 
Q 6.296875 42.578125 8.984375 45.96875 
Q 11.671875 49.359375 16.75 51.1875 
Q 21.828125 53.03125 28.515625 53.03125 
Q 35.15625 53.03125 39.296875 51.46875 
Q 43.453125 49.90625 45.40625 47.53125 
Q 47.359375 45.171875 48.140625 41.546875 
Q 48.578125 39.3125 48.578125 33.453125 
L 48.578125 21.734375 
Q 48.578125 9.46875 49.140625 6.21875 
Q 49.703125 2.984375 51.375 0 
L 42.1875 0 
Q 40.828125 2.734375 40.4375 6.390625 
M 39.703125 26.03125 
Q 34.90625 24.078125 25.34375 22.703125 
Q 19.921875 21.921875 17.671875 20.9375 
Q 15.4375 19.96875 14.203125 18.09375 
Q 12.984375 16.21875 12.984375 13.921875 
Q 12.984375 10.40625 15.640625 8.0625 
Q 18.3125 5.71875 23.4375 5.71875 
Q 28.515625 5.71875 32.46875 7.9375 
Q 36.421875 10.15625 38.28125 14.015625 
Q 39.703125 17 39.703125 22.796875 
z
" id="ArialMT-61"/>
      <path d="M 4.984375 -4.296875 
L 13.53125 -5.5625 
Q 14.0625 -9.515625 16.5 -11.328125 
Q 19.78125 -13.765625 25.4375 -13.765625 
Q 31.546875 -13.765625 34.859375 -11.328125 
Q 38.1875 -8.890625 39.359375 -4.5 
Q 40.046875 -1.8125 39.984375 6.78125 
Q 34.234375 0 25.640625 0 
Q 14.9375 0 9.078125 7.71875 
Q 3.21875 15.4375 3.21875 26.21875 
Q 3.21875 33.640625 5.90625 39.90625 
Q 8.59375 46.1875 13.6875 49.609375 
Q 18.796875 53.03125 25.6875 53.03125 
Q 34.859375 53.03125 40.828125 45.609375 
L 40.828125 51.859375 
L 48.921875 51.859375 
L 48.921875 7.03125 
Q 48.921875 -5.078125 46.453125 -10.125 
Q 44 -15.1875 38.640625 -18.109375 
Q 33.296875 -21.046875 25.484375 -21.046875 
Q 16.21875 -21.046875 10.5 -16.875 
Q 4.78125 -12.703125 4.984375 -4.296875 
M 12.25 26.859375 
Q 12.25 16.65625 16.296875 11.96875 
Q 20.359375 7.28125 26.46875 7.28125 
Q 32.515625 7.28125 36.609375 11.9375 
Q 40.71875 16.609375 40.71875 26.5625 
Q 40.71875 36.078125 36.5 40.90625 
Q 32.28125 45.75 26.3125 45.75 
Q 20.453125 45.75 16.34375 40.984375 
Q 12.25 36.234375 12.25 26.859375 
" id="ArialMT-67"/>
      <path d="M 42.09375 16.703125 
L 51.171875 15.578125 
Q 49.03125 7.625 43.21875 3.21875 
Q 37.40625 -1.171875 28.375 -1.171875 
Q 17 -1.171875 10.328125 5.828125 
Q 3.65625 12.84375 3.65625 25.484375 
Q 3.65625 38.578125 10.390625 45.796875 
Q 17.140625 53.03125 27.875 53.03125 
Q 38.28125 53.03125 44.875 45.953125 
Q 51.46875 38.875 51.46875 26.03125 
Q 51.46875 25.25 51.421875 23.6875 
L 12.75 23.6875 
Q 13.234375 15.140625 17.578125 10.59375 
Q 21.921875 6.0625 28.421875 6.0625 
Q 33.25 6.0625 36.671875 8.59375 
Q 40.09375 11.140625 42.09375 16.703125 
M 13.234375 30.90625 
L 42.1875 30.90625 
Q 41.609375 37.453125 38.875 40.71875 
Q 34.671875 45.796875 27.984375 45.796875 
Q 21.921875 45.796875 17.796875 41.75 
Q 13.671875 37.703125 13.234375 30.90625 
" id="ArialMT-65"/>
      <path d="M 40.578125 0 
L 40.578125 7.625 
Q 34.515625 -1.171875 24.125 -1.171875 
Q 19.53125 -1.171875 15.546875 0.578125 
Q 11.578125 2.34375 9.640625 5 
Q 7.71875 7.671875 6.9375 11.53125 
Q 6.390625 14.109375 6.390625 19.734375 
L 6.390625 51.859375 
L 15.1875 51.859375 
L 15.1875 23.09375 
Q 15.1875 16.21875 15.71875 13.8125 
Q 16.546875 10.359375 19.234375 8.375 
Q 21.921875 6.390625 25.875 6.390625 
Q 29.828125 6.390625 33.296875 8.421875 
Q 36.765625 10.453125 38.203125 13.9375 
Q 39.65625 17.4375 39.65625 24.078125 
L 39.65625 51.859375 
L 48.4375 51.859375 
L 48.4375 0 
z
" id="ArialMT-75"/>
      <path d="M 21 0 
L 1.265625 51.859375 
L 10.546875 51.859375 
L 21.6875 20.796875 
Q 23.484375 15.765625 25 10.359375 
Q 26.171875 14.453125 28.265625 20.21875 
L 39.796875 51.859375 
L 48.828125 51.859375 
L 29.203125 0 
z
" id="ArialMT-76"/>
      <path d="M 3.171875 21.484375 
L 3.171875 30.328125 
L 30.171875 30.328125 
L 30.171875 21.484375 
z
" id="ArialMT-2d"/>
      <path d="M 6.59375 -19.875 
L 6.59375 51.859375 
L 14.59375 51.859375 
L 14.59375 45.125 
Q 17.4375 49.078125 21 51.046875 
Q 24.5625 53.03125 29.640625 53.03125 
Q 36.28125 53.03125 41.359375 49.609375 
Q 46.4375 46.1875 49.015625 39.953125 
Q 51.609375 33.734375 51.609375 26.3125 
Q 51.609375 18.359375 48.75 11.984375 
Q 45.90625 5.609375 40.453125 2.21875 
Q 35.015625 -1.171875 29 -1.171875 
Q 24.609375 -1.171875 21.109375 0.6875 
Q 17.625 2.546875 15.375 5.375 
L 15.375 -19.875 
z
M 14.546875 25.640625 
Q 14.546875 15.625 18.59375 10.84375 
Q 22.65625 6.0625 28.421875 6.0625 
Q 34.28125 6.0625 38.453125 11.015625 
Q 42.625 15.96875 42.625 26.375 
Q 42.625 36.28125 38.546875 41.203125 
Q 34.46875 46.140625 28.8125 46.140625 
Q 23.1875 46.140625 18.859375 40.890625 
Q 14.546875 35.640625 14.546875 25.640625 
" id="ArialMT-70"/>
      <path d="M 6.390625 0 
L 6.390625 71.578125 
L 15.1875 71.578125 
L 15.1875 0 
z
" id="ArialMT-6c"/>
      <path d="M 3.328125 25.921875 
Q 3.328125 40.328125 11.328125 47.265625 
Q 18.015625 53.03125 27.640625 53.03125 
Q 38.328125 53.03125 45.109375 46.015625 
Q 51.90625 39.015625 51.90625 26.65625 
Q 51.90625 16.65625 48.90625 10.90625 
Q 45.90625 5.171875 40.15625 2 
Q 34.421875 -1.171875 27.640625 -1.171875 
Q 16.75 -1.171875 10.03125 5.8125 
Q 3.328125 12.796875 3.328125 25.921875 
M 12.359375 25.921875 
Q 12.359375 15.96875 16.703125 11.015625 
Q 21.046875 6.0625 27.640625 6.0625 
Q 34.1875 6.0625 38.53125 11.03125 
Q 42.875 16.015625 42.875 26.21875 
Q 42.875 35.84375 38.5 40.796875 
Q 34.125 45.75 27.640625 45.75 
Q 21.046875 45.75 16.703125 40.8125 
Q 12.359375 35.890625 12.359375 25.921875 
" id="ArialMT-6f"/>
      <path d="M 12.359375 -21.046875 
L 6.0625 -21.046875 
Q 20.65625 2.390625 20.65625 25.875 
Q 20.65625 35.0625 18.5625 44.09375 
Q 16.890625 51.421875 13.921875 58.15625 
Q 12.015625 62.546875 6.0625 72.796875 
L 12.359375 72.796875 
Q 21.53125 60.546875 25.921875 48.1875 
Q 29.6875 37.546875 29.6875 25.921875 
Q 29.6875 12.75 24.625 0.4375 
Q 19.578125 -11.859375 12.359375 -21.046875 
" id="ArialMT-29"/>
      <path d="M 23.390625 -21.046875 
Q 16.109375 -11.859375 11.078125 0.4375 
Q 6.0625 12.75 6.0625 25.921875 
Q 6.0625 37.546875 9.8125 48.1875 
Q 14.203125 60.546875 23.390625 72.796875 
L 29.6875 72.796875 
Q 23.78125 62.640625 21.875 58.296875 
Q 18.890625 51.5625 17.1875 44.234375 
Q 15.09375 35.109375 15.09375 25.875 
Q 15.09375 2.390625 29.6875 -21.046875 
z
" id="ArialMT-28"/>
     </defs>
     <g style="fill:#262626;" transform="translate(74.4165625 192.52828125)rotate(-90.0)scale(0.18 -0.18)">
      <use xlink:href="#ArialMT-2d"/>
      <use x="33.30078125" xlink:href="#ArialMT-6c"/>
      <use x="55.517578125" xlink:href="#ArialMT-6f"/>
      <use x="111.1328125" xlink:href="#ArialMT-67"/>
      <use x="166.748046875" xlink:href="#ArialMT-31"/>
      <use x="222.36328125" xlink:href="#ArialMT-30"/>
      <use x="277.978515625" xlink:href="#ArialMT-28"/>
      <use x="311.279296875" xlink:href="#ArialMT-70"/>
      <use x="366.89453125" xlink:href="#ArialMT-76"/>
      <use x="416.89453125" xlink:href="#ArialMT-61"/>
      <use x="472.509765625" xlink:href="#ArialMT-6c"/>
      <use x="494.7265625" xlink:href="#ArialMT-75"/>
      <use x="550.341796875" xlink:href="#ArialMT-65"/>
      <use x="605.95703125" xlink:href="#ArialMT-29"/>
     </g>
    </g>
   </g>
   <g id="PathCollection_1">
    <defs>
     <path d="M 0 2.236068 
C 0.593012 2.236068 1.161816 2.000462 1.581139 1.581139 
C 2.000462 1.161816 2.236068 0.593012 2.236068 0 
C 2.236068 -0.593012 2.000462 -1.161816 1.581139 -1.581139 
C 1.161816 -2.000462 0.593012 -2.236068 0 -2.236068 
C -0.593012 -2.236068 -1.161816 -2.000462 -1.581139 -1.581139 
C -2.000462 -1.161816 -2.236068 -0.593012 -2.236068 0 
C -2.236068 0.593012 -2.000462 1.161816 -1.581139 1.581139 
C -1.161816 2.000462 -0.593012 2.236068 0 2.236068 
z
" id="m169838292b" style="stroke:#d64541;stroke-width:0.3;"/>
    </defs>
    <g clip-path="url(#pba7017748e)">
     <use style="fill:#d64541;stroke:#d64541;stroke-width:0.3;" x="108.0" xlink:href="#m169838292b" y="197.162542636"/>
     <use style="fill:#d64541;stroke:#d64541;stroke-width:0.3;" x="110.84811748" xlink:href="#m169838292b" y="199.181587988"/>
     <use style="fill:#d64541;stroke:#d64541;stroke-width:0.3;" x="117.183283737" xlink:href="#m169838292b" y="217.218661318"/>
     <use style="fill:#d64541;stroke:#d64541;stroke-width:0.3;" x="123.301863113" xlink:href="#m169838292b" y="187.685806202"/>
     <use style="fill:#d64541;stroke:#d64541;stroke-width:0.3;" x="129.658688058" xlink:href="#m169838292b" y="174.230909705"/>
     <use style="fill:#d64541;stroke:#d64541;stroke-width:0.3;" x="144.922648467" xlink:href="#m169838292b" y="202.14160766"/>
     <use style="fill:#d64541;stroke:#d64541;stroke-width:0.3;" x="145.891874757" xlink:href="#m169838292b" y="192.498724359"/>
     <use style="fill:#d64541;stroke:#d64541;stroke-width:0.3;" x="149.974537456" xlink:href="#m169838292b" y="198.300437565"/>
     <use style="fill:#d64541;stroke:#d64541;stroke-width:0.3;" x="157.414296804" xlink:href="#m169838292b" y="196.223218039"/>
     <use style="fill:#d64541;stroke:#d64541;stroke-width:0.3;" x="168.785108035" xlink:href="#m169838292b" y="197.032797868"/>
     <use style="fill:#d64541;stroke:#d64541;stroke-width:0.3;" x="176.143647302" xlink:href="#m169838292b" y="190.607938688"/>
     <use style="fill:#d64541;stroke:#d64541;stroke-width:0.3;" x="190.530430845" xlink:href="#m169838292b" y="202.098920042"/>
     <use style="fill:#d64541;stroke:#d64541;stroke-width:0.3;" x="229.97631647" xlink:href="#m169838292b" y="198.000028533"/>
     <use style="fill:#d64541;stroke:#d64541;stroke-width:0.3;" x="248.110053047" xlink:href="#m169838292b" y="221.048339461"/>
     <use style="fill:#d64541;stroke:#d64541;stroke-width:0.3;" x="249.923968172" xlink:href="#m169838292b" y="194.877849551"/>
     <use style="fill:#d64541;stroke:#d64541;stroke-width:0.3;" x="259.405058869" xlink:href="#m169838292b" y="209.18459753"/>
     <use style="fill:#d64541;stroke:#d64541;stroke-width:0.3;" x="265.285392677" xlink:href="#m169838292b" y="225.885618101"/>
     <use style="fill:#d64541;stroke:#d64541;stroke-width:0.3;" x="272.957982921" xlink:href="#m169838292b" y="224.267474189"/>
     <use style="fill:#d64541;stroke:#d64541;stroke-width:0.3;" x="278.594656489" xlink:href="#m169838292b" y="198.468423279"/>
     <use style="fill:#d64541;stroke:#d64541;stroke-width:0.3;" x="290.647716393" xlink:href="#m169838292b" y="198.143018569"/>
     <use style="fill:#d64541;stroke:#d64541;stroke-width:0.3;" x="293.91817829" xlink:href="#m169838292b" y="227.032150093"/>
     <use style="fill:#d64541;stroke:#d64541;stroke-width:0.3;" x="297.166981498" xlink:href="#m169838292b" y="197.298955775"/>
     <use style="fill:#d64541;stroke:#d64541;stroke-width:0.3;" x="297.605569931" xlink:href="#m169838292b" y="226.207614848"/>
     <use style="fill:#d64541;stroke:#d64541;stroke-width:0.3;" x="305.792554017" xlink:href="#m169838292b" y="214.691759702"/>
     <use style="fill:#d64541;stroke:#d64541;stroke-width:0.3;" x="306.675145556" xlink:href="#m169838292b" y="197.953455454"/>
     <use style="fill:#d64541;stroke:#d64541;stroke-width:0.3;" x="307.46568767" xlink:href="#m169838292b" y="210.462849533"/>
     <use style="fill:#d64541;stroke:#d64541;stroke-width:0.3;" x="309.008869194" xlink:href="#m169838292b" y="193.682148537"/>
     <use style="fill:#d64541;stroke:#d64541;stroke-width:0.3;" x="309.550336395" xlink:href="#m169838292b" y="226.207614848"/>
     <use style="fill:#d64541;stroke:#d64541;stroke-width:0.3;" x="319.513332902" xlink:href="#m169838292b" y="199.718156875"/>
     <use style="fill:#d64541;stroke:#d64541;stroke-width:0.3;" x="326.178794152" xlink:href="#m169838292b" y="224.827533495"/>
     <use style="fill:#d64541;stroke:#d64541;stroke-width:0.3;" x="330.450970371" xlink:href="#m169838292b" y="225.168271992"/>
     <use style="fill:#d64541;stroke:#d64541;stroke-width:0.3;" x="334.777293311" xlink:href="#m169838292b" y="224.69992263"/>
     <use style="fill:#d64541;stroke:#d64541;stroke-width:0.3;" x="343.083400181" xlink:href="#m169838292b" y="199.640461836"/>
     <use style="fill:#d64541;stroke:#d64541;stroke-width:0.3;" x="358.531459438" xlink:href="#m169838292b" y="227.751472362"/>
     <use style="fill:#d64541;stroke:#d64541;stroke-width:0.3;" x="368.954703066" xlink:href="#m169838292b" y="229.975157068"/>
     <use style="fill:#d64541;stroke:#d64541;stroke-width:0.3;" x="388.138886014" xlink:href="#m169838292b" y="140.168347172"/>
     <use style="fill:#d64541;stroke:#d64541;stroke-width:0.3;" x="394.252050718" xlink:href="#m169838292b" y="174.252005032"/>
     <use style="fill:#d64541;stroke:#d64541;stroke-width:0.3;" x="394.511954975" xlink:href="#m169838292b" y="178.450851573"/>
     <use style="fill:#d64541;stroke:#d64541;stroke-width:0.3;" x="397.360072454" xlink:href="#m169838292b" y="182.665530497"/>
     <use style="fill:#d64541;stroke:#d64541;stroke-width:0.3;" x="400.056579118" xlink:href="#m169838292b" y="176.875255584"/>
     <use style="fill:#d64541;stroke:#d64541;stroke-width:0.3;" x="400.608875663" xlink:href="#m169838292b" y="194.423579474"/>
     <use style="fill:#d64541;stroke:#d64541;stroke-width:0.3;" x="401.258636305" xlink:href="#m169838292b" y="192.284882747"/>
     <use style="fill:#d64541;stroke:#d64541;stroke-width:0.3;" x="408.487223444" xlink:href="#m169838292b" y="119.175223335"/>
     <use style="fill:#d64541;stroke:#d64541;stroke-width:0.3;" x="413.69072325" xlink:href="#m169838292b" y="194.067280469"/>
     <use style="fill:#d64541;stroke:#d64541;stroke-width:0.3;" x="416.360156553" xlink:href="#m169838292b" y="154.08684037"/>
     <use style="fill:#d64541;stroke:#d64541;stroke-width:0.3;" x="427.037889766" xlink:href="#m169838292b" y="196.464970607"/>
     <use style="fill:#d64541;stroke:#d64541;stroke-width:0.3;" x="428.066677449" xlink:href="#m169838292b" y="195.579397642"/>
     <use style="fill:#d64541;stroke:#d64541;stroke-width:0.3;" x="429.588200285" xlink:href="#m169838292b" y="197.984018659"/>
     <use style="fill:#d64541;stroke:#d64541;stroke-width:0.3;" x="429.642347005" xlink:href="#m169838292b" y="197.234645095"/>
     <use style="fill:#d64541;stroke:#d64541;stroke-width:0.3;" x="437.120009057" xlink:href="#m169838292b" y="109.258123398"/>
     <use style="fill:#d64541;stroke:#d64541;stroke-width:0.3;" x="440.217201449" xlink:href="#m169838292b" y="163.638819719"/>
     <use style="fill:#d64541;stroke:#d64541;stroke-width:0.3;" x="440.70452193" xlink:href="#m169838292b" y="187.358708448"/>
     <use style="fill:#d64541;stroke:#d64541;stroke-width:0.3;" x="441.229745116" xlink:href="#m169838292b" y="196.60138529"/>
     <use style="fill:#d64541;stroke:#d64541;stroke-width:0.3;" x="443.877519731" xlink:href="#m169838292b" y="196.023675306"/>
     <use style="fill:#d64541;stroke:#d64541;stroke-width:0.3;" x="444.668061845" xlink:href="#m169838292b" y="192.717399883"/>
     <use style="fill:#d64541;stroke:#d64541;stroke-width:0.3;" x="446.211243369" xlink:href="#m169838292b" y="205.75085405"/>
     <use style="fill:#d64541;stroke:#d64541;stroke-width:0.3;" x="448.815700608" xlink:href="#m169838292b" y="186.62897511"/>
     <use style="fill:#d64541;stroke:#d64541;stroke-width:0.3;" x="451.100692198" xlink:href="#m169838292b" y="212.139586708"/>
     <use style="fill:#d64541;stroke:#d64541;stroke-width:0.3;" x="452.405628154" xlink:href="#m169838292b" y="163.560920049"/>
     <use style="fill:#d64541;stroke:#d64541;stroke-width:0.3;" x="452.762996507" xlink:href="#m169838292b" y="192.886064181"/>
     <use style="fill:#d64541;stroke:#d64541;stroke-width:0.3;" x="453.104120844" xlink:href="#m169838292b" y="194.490218605"/>
     <use style="fill:#d64541;stroke:#d64541;stroke-width:0.3;" x="454.582326304" xlink:href="#m169838292b" y="144.522122651"/>
     <use style="fill:#d64541;stroke:#d64541;stroke-width:0.3;" x="455.053402769" xlink:href="#m169838292b" y="195.82554342"/>
     <use style="fill:#d64541;stroke:#d64541;stroke-width:0.3;" x="460.386854703" xlink:href="#m169838292b" y="174.519932875"/>
     <use style="fill:#d64541;stroke:#d64541;stroke-width:0.3;" x="468.097347652" xlink:href="#m169838292b" y="138.41069401"/>
     <use style="fill:#d64541;stroke:#d64541;stroke-width:0.3;" x="468.795840342" xlink:href="#m169838292b" y="160.00887463"/>
     <use style="fill:#d64541;stroke:#d64541;stroke-width:0.3;" x="469.364380903" xlink:href="#m169838292b" y="193.453189977"/>
     <use style="fill:#d64541;stroke:#d64541;stroke-width:0.3;" x="475.986524777" xlink:href="#m169838292b" y="208.487068035"/>
     <use style="fill:#d64541;stroke:#d64541;stroke-width:0.3;" x="482.679059387" xlink:href="#m169838292b" y="155.691945735"/>
     <use style="fill:#d64541;stroke:#d64541;stroke-width:0.3;" x="490.292088239" xlink:href="#m169838292b" y="204.183729382"/>
     <use style="fill:#d64541;stroke:#d64541;stroke-width:0.3;" x="494.098602665" xlink:href="#m169838292b" y="207.583602494"/>
     <use style="fill:#d64541;stroke:#d64541;stroke-width:0.3;" x="523.310758183" xlink:href="#m169838292b" y="211.139219286"/>
     <use style="fill:#d64541;stroke:#d64541;stroke-width:0.3;" x="533.604049683" xlink:href="#m169838292b" y="176.648538686"/>
     <use style="fill:#d64541;stroke:#d64541;stroke-width:0.3;" x="534.416250485" xlink:href="#m169838292b" y="209.121889265"/>
     <use style="fill:#d64541;stroke:#d64541;stroke-width:0.3;" x="536.008164057" xlink:href="#m169838292b" y="204.302772889"/>
     <use style="fill:#d64541;stroke:#d64541;stroke-width:0.3;" x="542.955188252" xlink:href="#m169838292b" y="204.341518508"/>
     <use style="fill:#d64541;stroke:#d64541;stroke-width:0.3;" x="553.578774744" xlink:href="#m169838292b" y="200.155739661"/>
     <use style="fill:#d64541;stroke:#d64541;stroke-width:0.3;" x="554.732099884" xlink:href="#m169838292b" y="200.155739661"/>
     <use style="fill:#d64541;stroke:#d64541;stroke-width:0.3;" x="554.916198732" xlink:href="#m169838292b" y="211.244943382"/>
     <use style="fill:#d64541;stroke:#d64541;stroke-width:0.3;" x="564.841292535" xlink:href="#m169838292b" y="205.712868776"/>
     <use style="fill:#d64541;stroke:#d64541;stroke-width:0.3;" x="574.441506016" xlink:href="#m169838292b" y="197.513765117"/>
     <use style="fill:#d64541;stroke:#d64541;stroke-width:0.3;" x="574.706824945" xlink:href="#m169838292b" y="207.776475149"/>
     <use style="fill:#d64541;stroke:#d64541;stroke-width:0.3;" x="575.25912149" xlink:href="#m169838292b" y="207.500899897"/>
     <use style="fill:#d64541;stroke:#d64541;stroke-width:0.3;" x="575.340341571" xlink:href="#m169838292b" y="190.311826573"/>
     <use style="fill:#d64541;stroke:#d64541;stroke-width:0.3;" x="576.049663605" xlink:href="#m169838292b" y="214.558532128"/>
     <use style="fill:#d64541;stroke:#d64541;stroke-width:0.3;" x="577.782358649" xlink:href="#m169838292b" y="183.865916268"/>
     <use style="fill:#d64541;stroke:#d64541;stroke-width:0.3;" x="578.145141674" xlink:href="#m169838292b" y="145.077550958"/>
     <use style="fill:#d64541;stroke:#d64541;stroke-width:0.3;" x="578.204703066" xlink:href="#m169838292b" y="203.528297342"/>
     <use style="fill:#d64541;stroke:#d64541;stroke-width:0.3;" x="581.074479234" xlink:href="#m169838292b" y="203.682167923"/>
     <use style="fill:#d64541;stroke:#d64541;stroke-width:0.3;" x="581.193602018" xlink:href="#m169838292b" y="204.006774293"/>
     <use style="fill:#d64541;stroke:#d64541;stroke-width:0.3;" x="581.545555699" xlink:href="#m169838292b" y="100.686351642"/>
     <use style="fill:#d64541;stroke:#d64541;stroke-width:0.3;" x="581.84336266" xlink:href="#m169838292b" y="203.803879143"/>
     <use style="fill:#d64541;stroke:#d64541;stroke-width:0.3;" x="582.953370423" xlink:href="#m169838292b" y="212.099852231"/>
     <use style="fill:#d64541;stroke:#d64541;stroke-width:0.3;" x="583.115810584" xlink:href="#m169838292b" y="204.006774293"/>
     <use style="fill:#d64541;stroke:#d64541;stroke-width:0.3;" x="583.164542632" xlink:href="#m169838292b" y="209.452834303"/>
     <use style="fill:#d64541;stroke:#d64541;stroke-width:0.3;" x="583.2674214" xlink:href="#m169838292b" y="179.359692094"/>
     <use style="fill:#d64541;stroke:#d64541;stroke-width:0.3;" x="584.69148014" xlink:href="#m169838292b" y="193.418807377"/>
     <use style="fill:#d64541;stroke:#d64541;stroke-width:0.3;" x="585.222117997" xlink:href="#m169838292b" y="179.359692094"/>
     <use style="fill:#d64541;stroke:#d64541;stroke-width:0.3;" x="585.460363566" xlink:href="#m169838292b" y="204.006774293"/>
     <use style="fill:#d64541;stroke:#d64541;stroke-width:0.3;" x="588.638776038" xlink:href="#m169838292b" y="203.682167923"/>
     <use style="fill:#d64541;stroke:#d64541;stroke-width:0.3;" x="588.974485703" xlink:href="#m169838292b" y="203.682167923"/>
     <use style="fill:#d64541;stroke:#d64541;stroke-width:0.3;" x="590.84796222" xlink:href="#m169838292b" y="206.148568821"/>
     <use style="fill:#d64541;stroke:#d64541;stroke-width:0.3;" x="591.086207789" xlink:href="#m169838292b" y="208.084151816"/>
     <use style="fill:#d64541;stroke:#d64541;stroke-width:0.3;" x="594.55701255" xlink:href="#m169838292b" y="159.853764442"/>
     <use style="fill:#d64541;stroke:#d64541;stroke-width:0.3;" x="594.876478199" xlink:href="#m169838292b" y="99.2835426299"/>
     <use style="fill:#d64541;stroke:#d64541;stroke-width:0.3;" x="595.271749256" xlink:href="#m169838292b" y="41.2924844239"/>
     <use style="fill:#d64541;stroke:#d64541;stroke-width:0.3;" x="595.851119162" xlink:href="#m169838292b" y="155.190193556"/>
     <use style="fill:#d64541;stroke:#d64541;stroke-width:0.3;" x="596.132682106" xlink:href="#m169838292b" y="203.682167923"/>
     <use style="fill:#d64541;stroke:#d64541;stroke-width:0.3;" x="596.955712253" xlink:href="#m169838292b" y="203.682167923"/>
     <use style="fill:#d64541;stroke:#d64541;stroke-width:0.3;" x="597.979085263" xlink:href="#m169838292b" y="178.290807139"/>
     <use style="fill:#d64541;stroke:#d64541;stroke-width:0.3;" x="598.022402639" xlink:href="#m169838292b" y="178.290807139"/>
     <use style="fill:#d64541;stroke:#d64541;stroke-width:0.3;" x="598.038646655" xlink:href="#m169838292b" y="196.325109584"/>
     <use style="fill:#d64541;stroke:#d64541;stroke-width:0.3;" x="598.087378704" xlink:href="#m169838292b" y="147.582541942"/>
     <use style="fill:#d64541;stroke:#d64541;stroke-width:0.3;" x="598.585528529" xlink:href="#m169838292b" y="144.918077937"/>
     <use style="fill:#d64541;stroke:#d64541;stroke-width:0.3;" x="604.108493984" xlink:href="#m169838292b" y="205.313316072"/>
     <use style="fill:#d64541;stroke:#d64541;stroke-width:0.3;" x="606.009043861" xlink:href="#m169838292b" y="211.827555869"/>
     <use style="fill:#d64541;stroke:#d64541;stroke-width:0.3;" x="607.460175961" xlink:href="#m169838292b" y="181.177854778"/>
     <use style="fill:#d64541;stroke:#d64541;stroke-width:0.3;" x="613.497535257" xlink:href="#m169838292b" y="179.271158262"/>
     <use style="fill:#d64541;stroke:#d64541;stroke-width:0.3;" x="613.670804761" xlink:href="#m169838292b" y="207.290475606"/>
     <use style="fill:#d64541;stroke:#d64541;stroke-width:0.3;" x="615.138180877" xlink:href="#m169838292b" y="179.271158262"/>
     <use style="fill:#d64541;stroke:#d64541;stroke-width:0.3;" x="617.796784836" xlink:href="#m169838292b" y="181.451377876"/>
     <use style="fill:#d64541;stroke:#d64541;stroke-width:0.3;" x="620.769439772" xlink:href="#m169838292b" y="209.171107857"/>
     <use style="fill:#d64541;stroke:#d64541;stroke-width:0.3;" x="620.931879933" xlink:href="#m169838292b" y="179.987414812"/>
     <use style="fill:#d64541;stroke:#d64541;stroke-width:0.3;" x="620.937294605" xlink:href="#m169838292b" y="184.434814233"/>
     <use style="fill:#d64541;stroke:#d64541;stroke-width:0.3;" x="620.942709277" xlink:href="#m169838292b" y="143.138100804"/>
     <use style="fill:#d64541;stroke:#d64541;stroke-width:0.3;" x="620.958953293" xlink:href="#m169838292b" y="148.638656239"/>
     <use style="fill:#d64541;stroke:#d64541;stroke-width:0.3;" x="621.029344029" xlink:href="#m169838292b" y="184.155928154"/>
     <use style="fill:#d64541;stroke:#d64541;stroke-width:0.3;" x="621.051002717" xlink:href="#m169838292b" y="183.902402268"/>
     <use style="fill:#d64541;stroke:#d64541;stroke-width:0.3;" x="621.337980334" xlink:href="#m169838292b" y="177.621616826"/>
     <use style="fill:#d64541;stroke:#d64541;stroke-width:0.3;" x="621.35422435" xlink:href="#m169838292b" y="177.621616826"/>
     <use style="fill:#d64541;stroke:#d64541;stroke-width:0.3;" x="621.38129771" xlink:href="#m169838292b" y="158.668698644"/>
     <use style="fill:#d64541;stroke:#d64541;stroke-width:0.3;" x="621.413785742" xlink:href="#m169838292b" y="188.186923187"/>
     <use style="fill:#d64541;stroke:#d64541;stroke-width:0.3;" x="621.419200414" xlink:href="#m169838292b" y="188.186923187"/>
     <use style="fill:#d64541;stroke:#d64541;stroke-width:0.3;" x="621.522079182" xlink:href="#m169838292b" y="182.941630097"/>
     <use style="fill:#d64541;stroke:#d64541;stroke-width:0.3;" x="621.868618191" xlink:href="#m169838292b" y="138.415724461"/>
     <use style="fill:#d64541;stroke:#d64541;stroke-width:0.3;" x="623.341408979" xlink:href="#m169838292b" y="114.321676357"/>
     <use style="fill:#d64541;stroke:#d64541;stroke-width:0.3;" x="623.709606676" xlink:href="#m169838292b" y="211.478582536"/>
     <use style="fill:#d64541;stroke:#d64541;stroke-width:0.3;" x="625.149909432" xlink:href="#m169838292b" y="211.478582536"/>
     <use style="fill:#d64541;stroke:#d64541;stroke-width:0.3;" x="626.860945789" xlink:href="#m169838292b" y="179.652148664"/>
     <use style="fill:#d64541;stroke:#d64541;stroke-width:0.3;" x="628.620714193" xlink:href="#m169838292b" y="208.525600716"/>
     <use style="fill:#d64541;stroke:#d64541;stroke-width:0.3;" x="633.158209341" xlink:href="#m169838292b" y="49.8135665885"/>
     <use style="fill:#d64541;stroke:#d64541;stroke-width:0.3;" x="633.813384655" xlink:href="#m169838292b" y="206.326483874"/>
     <use style="fill:#d64541;stroke:#d64541;stroke-width:0.3;" x="634.728464226" xlink:href="#m169838292b" y="195.034499339"/>
     <use style="fill:#d64541;stroke:#d64541;stroke-width:0.3;" x="634.798854962" xlink:href="#m169838292b" y="115.498637881"/>
     <use style="fill:#d64541;stroke:#d64541;stroke-width:0.3;" x="635.898033381" xlink:href="#m169838292b" y="214.643318898"/>
     <use style="fill:#d64541;stroke:#d64541;stroke-width:0.3;" x="638.518734636" xlink:href="#m169838292b" y="165.761492413"/>
     <use style="fill:#d64541;stroke:#d64541;stroke-width:0.3;" x="640.045672144" xlink:href="#m169838292b" y="165.761492413"/>
     <use style="fill:#d64541;stroke:#d64541;stroke-width:0.3;" x="640.673774098" xlink:href="#m169838292b" y="165.761492413"/>
     <use style="fill:#d64541;stroke:#d64541;stroke-width:0.3;" x="641.334364083" xlink:href="#m169838292b" y="209.576758174"/>
     <use style="fill:#d64541;stroke:#d64541;stroke-width:0.3;" x="641.372266787" xlink:href="#m169838292b" y="165.761492413"/>
     <use style="fill:#d64541;stroke:#d64541;stroke-width:0.3;" x="644.853900893" xlink:href="#m169838292b" y="190.312651959"/>
     <use style="fill:#d64541;stroke:#d64541;stroke-width:0.3;" x="645.774395135" xlink:href="#m169838292b" y="169.728105804"/>
     <use style="fill:#d64541;stroke:#d64541;stroke-width:0.3;" x="646.922305602" xlink:href="#m169838292b" y="173.065831342"/>
     <use style="fill:#d64541;stroke:#d64541;stroke-width:0.3;" x="648.866172855" xlink:href="#m169838292b" y="198.444428447"/>
     <use style="fill:#d64541;stroke:#d64541;stroke-width:0.3;" x="658.238970113" xlink:href="#m169838292b" y="200.946646677"/>
     <use style="fill:#d64541;stroke:#d64541;stroke-width:0.3;" x="659.776736965" xlink:href="#m169838292b" y="210.053163903"/>
     <use style="fill:#d64541;stroke:#d64541;stroke-width:0.3;" x="659.787566309" xlink:href="#m169838292b" y="191.596591151"/>
     <use style="fill:#d64541;stroke:#d64541;stroke-width:0.3;" x="661.72601889" xlink:href="#m169838292b" y="198.633560144"/>
     <use style="fill:#d64541;stroke:#d64541;stroke-width:0.3;" x="670.860570578" xlink:href="#m169838292b" y="209.820619836"/>
     <use style="fill:#d64541;stroke:#d64541;stroke-width:0.3;" x="671.142133523" xlink:href="#m169838292b" y="200.831119161"/>
     <use style="fill:#d64541;stroke:#d64541;stroke-width:0.3;" x="671.607795316" xlink:href="#m169838292b" y="200.910558454"/>
     <use style="fill:#d64541;stroke:#d64541;stroke-width:0.3;" x="672.761120455" xlink:href="#m169838292b" y="204.34915098"/>
     <use style="fill:#d64541;stroke:#d64541;stroke-width:0.3;" x="673.779078794" xlink:href="#m169838292b" y="208.068969274"/>
     <use style="fill:#d64541;stroke:#d64541;stroke-width:0.3;" x="678.045840342" xlink:href="#m169838292b" y="209.458590603"/>
     <use style="fill:#d64541;stroke:#d64541;stroke-width:0.3;" x="681.110544702" xlink:href="#m169838292b" y="196.456936469"/>
     <use style="fill:#d64541;stroke:#d64541;stroke-width:0.3;" x="684.982035192" xlink:href="#m169838292b" y="208.370231359"/>
     <use style="fill:#d64541;stroke:#d64541;stroke-width:0.3;" x="685.550575754" xlink:href="#m169838292b" y="211.90428279"/>
     <use style="fill:#d64541;stroke:#d64541;stroke-width:0.3;" x="688.344546513" xlink:href="#m169838292b" y="200.851462922"/>
     <use style="fill:#d64541;stroke:#d64541;stroke-width:0.3;" x="702.888355544" xlink:href="#m169838292b" y="207.692179313"/>
     <use style="fill:#d64541;stroke:#d64541;stroke-width:0.3;" x="704.036266011" xlink:href="#m169838292b" y="196.282004801"/>
     <use style="fill:#d64541;stroke:#d64541;stroke-width:0.3;" x="704.306999612" xlink:href="#m169838292b" y="194.450055896"/>
     <use style="fill:#d64541;stroke:#d64541;stroke-width:0.3;" x="704.366561004" xlink:href="#m169838292b" y="197.40125379"/>
     <use style="fill:#d64541;stroke:#d64541;stroke-width:0.3;" x="704.680611981" xlink:href="#m169838292b" y="204.798538752"/>
     <use style="fill:#d64541;stroke:#d64541;stroke-width:0.3;" x="708.525029111" xlink:href="#m169838292b" y="152.372915481"/>
     <use style="fill:#d64541;stroke:#d64541;stroke-width:0.3;" x="709.949087851" xlink:href="#m169838292b" y="207.595869591"/>
     <use style="fill:#d64541;stroke:#d64541;stroke-width:0.3;" x="710.495969724" xlink:href="#m169838292b" y="210.300553054"/>
     <use style="fill:#d64541;stroke:#d64541;stroke-width:0.3;" x="716.224692716" xlink:href="#m169838292b" y="198.724643446"/>
     <use style="fill:#d64541;stroke:#d64541;stroke-width:0.3;" x="716.311327468" xlink:href="#m169838292b" y="207.541054915"/>
     <use style="fill:#d64541;stroke:#d64541;stroke-width:0.3;" x="720.166573942" xlink:href="#m169838292b" y="193.650639996"/>
     <use style="fill:#d64541;stroke:#d64541;stroke-width:0.3;" x="723.566987967" xlink:href="#m169838292b" y="207.541054915"/>
     <use style="fill:#d64541;stroke:#d64541;stroke-width:0.3;" x="724.146357873" xlink:href="#m169838292b" y="211.400156899"/>
     <use style="fill:#d64541;stroke:#d64541;stroke-width:0.3;" x="726.036078406" xlink:href="#m169838292b" y="207.541054915"/>
     <use style="fill:#d64541;stroke:#d64541;stroke-width:0.3;" x="726.063151766" xlink:href="#m169838292b" y="207.055017177"/>
     <use style="fill:#d64541;stroke:#d64541;stroke-width:0.3;" x="730.497768146" xlink:href="#m169838292b" y="211.93014464"/>
     <use style="fill:#d64541;stroke:#d64541;stroke-width:0.3;" x="730.806404451" xlink:href="#m169838292b" y="218.928985365"/>
     <use style="fill:#d64541;stroke:#d64541;stroke-width:0.3;" x="733.264665545" xlink:href="#m169838292b" y="180.170028415"/>
     <use style="fill:#d64541;stroke:#d64541;stroke-width:0.3;" x="736.129027041" xlink:href="#m169838292b" y="211.93014464"/>
     <use style="fill:#d64541;stroke:#d64541;stroke-width:0.3;" x="737.136156036" xlink:href="#m169838292b" y="200.893394848"/>
     <use style="fill:#d64541;stroke:#d64541;stroke-width:0.3;" x="740.043834907" xlink:href="#m169838292b" y="207.541054915"/>
     <use style="fill:#d64541;stroke:#d64541;stroke-width:0.3;" x="741.630333808" xlink:href="#m169838292b" y="194.337509484"/>
     <use style="fill:#d64541;stroke:#d64541;stroke-width:0.3;" x="748.317453746" xlink:href="#m169838292b" y="215.377576908"/>
     <use style="fill:#d64541;stroke:#d64541;stroke-width:0.3;" x="750.726982792" xlink:href="#m169838292b" y="194.502173399"/>
     <use style="fill:#d64541;stroke:#d64541;stroke-width:0.3;" x="751.322596714" xlink:href="#m169838292b" y="207.541054915"/>
     <use style="fill:#d64541;stroke:#d64541;stroke-width:0.3;" x="752.427189805" xlink:href="#m169838292b" y="194.337509484"/>
     <use style="fill:#d64541;stroke:#d64541;stroke-width:0.3;" x="752.692508733" xlink:href="#m169838292b" y="207.541054915"/>
     <use style="fill:#d64541;stroke:#d64541;stroke-width:0.3;" x="754.766328115" xlink:href="#m169838292b" y="207.541054915"/>
     <use style="fill:#d64541;stroke:#d64541;stroke-width:0.3;" x="755.10203778" xlink:href="#m169838292b" y="194.337509484"/>
     <use style="fill:#d64541;stroke:#d64541;stroke-width:0.3;" x="755.865506534" xlink:href="#m169838292b" y="196.10249557"/>
     <use style="fill:#d64541;stroke:#d64541;stroke-width:0.3;" x="763.424388666" xlink:href="#m169838292b" y="195.716252747"/>
     <use style="fill:#d64541;stroke:#d64541;stroke-width:0.3;" x="766.413287618" xlink:href="#m169838292b" y="207.541054915"/>
     <use style="fill:#d64541;stroke:#d64541;stroke-width:0.3;" x="768.660376504" xlink:href="#m169838292b" y="207.541054915"/>
     <use style="fill:#d64541;stroke:#d64541;stroke-width:0.3;" x="768.665791176" xlink:href="#m169838292b" y="215.957759742"/>
     <use style="fill:#d64541;stroke:#d64541;stroke-width:0.3;" x="768.833646009" xlink:href="#m169838292b" y="207.541054915"/>
     <use style="fill:#d64541;stroke:#d64541;stroke-width:0.3;" x="773.143724932" xlink:href="#m169838292b" y="207.541054915"/>
     <use style="fill:#d64541;stroke:#d64541;stroke-width:0.3;" x="774.188756631" xlink:href="#m169838292b" y="215.957759742"/>
     <use style="fill:#d64541;stroke:#d64541;stroke-width:0.3;" x="777.594585328" xlink:href="#m169838292b" y="212.069423701"/>
    </g>
   </g>
   <g id="line2d_43">
    <path clip-path="url(#pba7017748e)" d="M 108 130.355537 
L 777.6 130.355537 
" style="fill:none;stroke:#808080;stroke-dasharray:6.000000,6.000000;stroke-dashoffset:0.0;stroke-width:1.75;"/>
   </g>
   <g id="patch_3">
    <path d="M 108 27 
L 777.6 27 
" style="fill:none;"/>
   </g>
   <g id="patch_4">
    <path d="M 777.6 243 
L 777.6 27 
" style="fill:none;"/>
   </g>
   <g id="patch_5">
    <path d="M 108 243 
L 777.6 243 
" style="fill:none;"/>
   </g>
   <g id="patch_6">
    <path d="M 108 243 
L 108 27 
" style="fill:none;"/>
   </g>
   <g id="legend_1">
    <g id="patch_7">
     <path d="M 680.58575 46.30725 
L 700.58575 46.30725 
L 700.58575 39.30725 
L 680.58575 39.30725 
z
" style="fill:#ffffff;stroke:#ffffff;stroke-linejoin:miter;stroke-width:0.3;"/>
    </g>
    <g id="text_16">
     <!-- tg.Zscore -->
     <defs>
      <path d="M 40.4375 19 
L 49.078125 17.875 
Q 47.65625 8.9375 41.8125 3.875 
Q 35.984375 -1.171875 27.484375 -1.171875 
Q 16.84375 -1.171875 10.375 5.78125 
Q 3.90625 12.75 3.90625 25.734375 
Q 3.90625 34.125 6.6875 40.421875 
Q 9.46875 46.734375 15.15625 49.875 
Q 20.84375 53.03125 27.546875 53.03125 
Q 35.984375 53.03125 41.359375 48.75 
Q 46.734375 44.484375 48.25 36.625 
L 39.703125 35.296875 
Q 38.484375 40.53125 35.375 43.15625 
Q 32.28125 45.796875 27.875 45.796875 
Q 21.234375 45.796875 17.078125 41.03125 
Q 12.9375 36.28125 12.9375 25.984375 
Q 12.9375 15.53125 16.9375 10.796875 
Q 20.953125 6.0625 27.390625 6.0625 
Q 32.5625 6.0625 36.03125 9.234375 
Q 39.5 12.40625 40.4375 19 
" id="ArialMT-63"/>
      <path d="M 25.78125 7.859375 
L 27.046875 0.09375 
Q 23.34375 -0.6875 20.40625 -0.6875 
Q 15.625 -0.6875 12.984375 0.828125 
Q 10.359375 2.34375 9.28125 4.8125 
Q 8.203125 7.28125 8.203125 15.1875 
L 8.203125 45.015625 
L 1.765625 45.015625 
L 1.765625 51.859375 
L 8.203125 51.859375 
L 8.203125 64.703125 
L 16.9375 69.96875 
L 16.9375 51.859375 
L 25.78125 51.859375 
L 25.78125 45.015625 
L 16.9375 45.015625 
L 16.9375 14.703125 
Q 16.9375 10.9375 17.40625 9.859375 
Q 17.875 8.796875 18.921875 8.15625 
Q 19.96875 7.515625 21.921875 7.515625 
Q 23.390625 7.515625 25.78125 7.859375 
" id="ArialMT-74"/>
      <path d="M 9.078125 0 
L 9.078125 10.015625 
L 19.09375 10.015625 
L 19.09375 0 
z
" id="ArialMT-2e"/>
      <path d="M 6.5 0 
L 6.5 51.859375 
L 14.40625 51.859375 
L 14.40625 44 
Q 17.4375 49.515625 20 51.265625 
Q 22.5625 53.03125 25.640625 53.03125 
Q 30.078125 53.03125 34.671875 50.203125 
L 31.640625 42.046875 
Q 28.421875 43.953125 25.203125 43.953125 
Q 22.3125 43.953125 20.015625 42.21875 
Q 17.71875 40.484375 16.75 37.40625 
Q 15.28125 32.71875 15.28125 27.15625 
L 15.28125 0 
z
" id="ArialMT-72"/>
      <path d="M 3.078125 15.484375 
L 11.765625 16.84375 
Q 12.5 11.625 15.84375 8.84375 
Q 19.1875 6.0625 25.203125 6.0625 
Q 31.25 6.0625 34.171875 8.515625 
Q 37.109375 10.984375 37.109375 14.3125 
Q 37.109375 17.28125 34.515625 19 
Q 32.71875 20.171875 25.53125 21.96875 
Q 15.875 24.421875 12.140625 26.203125 
Q 8.40625 27.984375 6.46875 31.125 
Q 4.546875 34.28125 4.546875 38.09375 
Q 4.546875 41.546875 6.125 44.5 
Q 7.71875 47.46875 10.453125 49.421875 
Q 12.5 50.921875 16.03125 51.96875 
Q 19.578125 53.03125 23.640625 53.03125 
Q 29.734375 53.03125 34.34375 51.265625 
Q 38.96875 49.515625 41.15625 46.5 
Q 43.359375 43.5 44.1875 38.484375 
L 35.59375 37.3125 
Q 35.015625 41.3125 32.203125 43.546875 
Q 29.390625 45.796875 24.265625 45.796875 
Q 18.21875 45.796875 15.625 43.796875 
Q 13.03125 41.796875 13.03125 39.109375 
Q 13.03125 37.40625 14.109375 36.03125 
Q 15.1875 34.625 17.484375 33.6875 
Q 18.796875 33.203125 25.25 31.453125 
Q 34.578125 28.953125 38.25 27.359375 
Q 41.9375 25.78125 44.03125 22.75 
Q 46.140625 19.734375 46.140625 15.234375 
Q 46.140625 10.84375 43.578125 6.953125 
Q 41.015625 3.078125 36.171875 0.953125 
Q 31.34375 -1.171875 25.25 -1.171875 
Q 15.140625 -1.171875 9.84375 3.03125 
Q 4.546875 7.234375 3.078125 15.484375 
" id="ArialMT-73"/>
      <path d="M 2 0 
L 2 8.796875 
L 38.671875 54.640625 
Q 42.578125 59.515625 46.09375 63.140625 
L 6.15625 63.140625 
L 6.15625 71.578125 
L 57.421875 71.578125 
L 57.421875 63.140625 
L 17.234375 13.484375 
L 12.890625 8.453125 
L 58.59375 8.453125 
L 58.59375 0 
z
" id="ArialMT-5a"/>
     </defs>
     <g style="fill:#262626;" transform="translate(708.58575 46.30725)scale(0.144 -0.144)">
      <use xlink:href="#ArialMT-74"/>
      <use x="27.783203125" xlink:href="#ArialMT-67"/>
      <use x="83.3984375" xlink:href="#ArialMT-2e"/>
      <use x="111.181640625" xlink:href="#ArialMT-5a"/>
      <use x="172.265625" xlink:href="#ArialMT-73"/>
      <use x="222.265625" xlink:href="#ArialMT-63"/>
      <use x="272.265625" xlink:href="#ArialMT-6f"/>
      <use x="327.880859375" xlink:href="#ArialMT-72"/>
      <use x="361.181640625" xlink:href="#ArialMT-65"/>
     </g>
    </g>
   </g>
  </g>
 </g>
 <defs>
  <clipPath id="pba7017748e">
   <rect height="216.0" width="669.6" x="108.0" y="27.0"/>
  </clipPath>
 </defs>
</svg>
