<?xml version="1.0" encoding="utf-8" standalone="no"?>
<!DOCTYPE svg PUBLIC "-//W3C//DTD SVG 1.1//EN"
  "http://www.w3.org/Graphics/SVG/1.1/DTD/svg11.dtd">
<!-- Created with matplotlib (http://matplotlib.org/) -->
<svg height="234pt" version="1.1" viewBox="0 0 864 234" width="864pt" xmlns="http://www.w3.org/2000/svg" xmlns:xlink="http://www.w3.org/1999/xlink">
 <defs>
  <style type="text/css">
*{stroke-linecap:butt;stroke-linejoin:round;stroke-miterlimit:100000;}
  </style>
 </defs>
 <g id="figure_1">
  <g id="patch_1">
   <path d="M 0 234 
L 864 234 
L 864 0 
L 0 0 
z
" style="fill:#ffffff;"/>
  </g>
  <g id="axes_1">
   <g id="patch_2">
    <path d="M 108 210.6 
L 777.6 210.6 
L 777.6 23.4 
L 108 23.4 
z
" style="fill:#ffffff;"/>
   </g>
   <g id="matplotlib.axis_1">
    <g id="xtick_1">
     <g id="line2d_1">
      <path clip-path="url(#p234efec601)" d="M 199.248053 210.6 
L 199.248053 23.4 
" style="fill:none;stroke:#ffffff;stroke-linecap:round;"/>
     </g>
     <g id="line2d_2">
      <defs>
       <path d="M 0 0 
L 0 0 
" id="mc897123cf0" style="stroke:#262626;"/>
      </defs>
      <g>
       <use style="fill:#262626;stroke:#262626;" x="199.248052788" xlink:href="#mc897123cf0" y="210.6"/>
      </g>
     </g>
     <g id="line2d_3">
      <g>
       <use style="fill:#262626;stroke:#262626;" x="199.248052788" xlink:href="#mc897123cf0" y="23.4"/>
      </g>
     </g>
     <g id="text_1">
      <!-- 3400000 -->
      <defs>
       <path d="M 4.15625 35.296875 
Q 4.15625 48 6.765625 55.734375 
Q 9.375 63.484375 14.515625 67.671875 
Q 19.671875 71.875 27.484375 71.875 
Q 33.25 71.875 37.59375 69.546875 
Q 41.9375 67.234375 44.765625 62.859375 
Q 47.609375 58.5 49.21875 52.21875 
Q 50.828125 45.953125 50.828125 35.296875 
Q 50.828125 22.703125 48.234375 14.96875 
Q 45.65625 7.234375 40.5 3 
Q 35.359375 -1.21875 27.484375 -1.21875 
Q 17.140625 -1.21875 11.234375 6.203125 
Q 4.15625 15.140625 4.15625 35.296875 
M 13.1875 35.296875 
Q 13.1875 17.671875 17.3125 11.828125 
Q 21.4375 6 27.484375 6 
Q 33.546875 6 37.671875 11.859375 
Q 41.796875 17.71875 41.796875 35.296875 
Q 41.796875 52.984375 37.671875 58.78125 
Q 33.546875 64.59375 27.390625 64.59375 
Q 21.34375 64.59375 17.71875 59.46875 
Q 13.1875 52.9375 13.1875 35.296875 
" id="ArialMT-30"/>
       <path d="M 4.203125 18.890625 
L 12.984375 20.0625 
Q 14.5 12.59375 18.140625 9.296875 
Q 21.78125 6 27 6 
Q 33.203125 6 37.46875 10.296875 
Q 41.75 14.59375 41.75 20.953125 
Q 41.75 27 37.796875 30.921875 
Q 33.84375 34.859375 27.734375 34.859375 
Q 25.25 34.859375 21.53125 33.890625 
L 22.515625 41.609375 
Q 23.390625 41.5 23.921875 41.5 
Q 29.546875 41.5 34.03125 44.421875 
Q 38.53125 47.359375 38.53125 53.46875 
Q 38.53125 58.296875 35.25 61.46875 
Q 31.984375 64.65625 26.8125 64.65625 
Q 21.6875 64.65625 18.265625 61.421875 
Q 14.84375 58.203125 13.875 51.765625 
L 5.078125 53.328125 
Q 6.6875 62.15625 12.390625 67.015625 
Q 18.109375 71.875 26.609375 71.875 
Q 32.46875 71.875 37.390625 69.359375 
Q 42.328125 66.84375 44.9375 62.5 
Q 47.5625 58.15625 47.5625 53.265625 
Q 47.5625 48.640625 45.0625 44.828125 
Q 42.578125 41.015625 37.703125 38.765625 
Q 44.046875 37.3125 47.5625 32.6875 
Q 51.078125 28.078125 51.078125 21.140625 
Q 51.078125 11.765625 44.234375 5.25 
Q 37.40625 -1.265625 26.953125 -1.265625 
Q 17.53125 -1.265625 11.296875 4.34375 
Q 5.078125 9.96875 4.203125 18.890625 
" id="ArialMT-33"/>
       <path d="M 32.328125 0 
L 32.328125 17.140625 
L 1.265625 17.140625 
L 1.265625 25.203125 
L 33.9375 71.578125 
L 41.109375 71.578125 
L 41.109375 25.203125 
L 50.78125 25.203125 
L 50.78125 17.140625 
L 41.109375 17.140625 
L 41.109375 0 
z
M 32.328125 25.203125 
L 32.328125 57.46875 
L 9.90625 25.203125 
z
" id="ArialMT-34"/>
      </defs>
      <g style="fill:#262626;" transform="translate(164.214146538 230.4840625)scale(0.18 -0.18)">
       <use xlink:href="#ArialMT-33"/>
       <use x="55.615234375" xlink:href="#ArialMT-34"/>
       <use x="111.23046875" xlink:href="#ArialMT-30"/>
       <use x="166.845703125" xlink:href="#ArialMT-30"/>
       <use x="222.4609375" xlink:href="#ArialMT-30"/>
       <use x="278.076171875" xlink:href="#ArialMT-30"/>
       <use x="333.69140625" xlink:href="#ArialMT-30"/>
      </g>
     </g>
    </g>
    <g id="xtick_2">
     <g id="line2d_4">
      <path clip-path="url(#p234efec601)" d="M 307.541493 210.6 
L 307.541493 23.4 
" style="fill:none;stroke:#ffffff;stroke-linecap:round;"/>
     </g>
     <g id="line2d_5">
      <g>
       <use style="fill:#262626;stroke:#262626;" x="307.541493078" xlink:href="#mc897123cf0" y="210.6"/>
      </g>
     </g>
     <g id="line2d_6">
      <g>
       <use style="fill:#262626;stroke:#262626;" x="307.541493078" xlink:href="#mc897123cf0" y="23.4"/>
      </g>
     </g>
     <g id="text_2">
      <!-- 3420000 -->
      <defs>
       <path d="M 50.34375 8.453125 
L 50.34375 0 
L 3.03125 0 
Q 2.9375 3.171875 4.046875 6.109375 
Q 5.859375 10.9375 9.828125 15.625 
Q 13.8125 20.3125 21.34375 26.46875 
Q 33.015625 36.03125 37.109375 41.625 
Q 41.21875 47.21875 41.21875 52.203125 
Q 41.21875 57.421875 37.46875 61 
Q 33.734375 64.59375 27.734375 64.59375 
Q 21.390625 64.59375 17.578125 60.78125 
Q 13.765625 56.984375 13.71875 50.25 
L 4.6875 51.171875 
Q 5.609375 61.28125 11.65625 66.578125 
Q 17.71875 71.875 27.9375 71.875 
Q 38.234375 71.875 44.234375 66.15625 
Q 50.25 60.453125 50.25 52 
Q 50.25 47.703125 48.484375 43.546875 
Q 46.734375 39.40625 42.65625 34.8125 
Q 38.578125 30.21875 29.109375 22.21875 
Q 21.1875 15.578125 18.9375 13.203125 
Q 16.703125 10.84375 15.234375 8.453125 
z
" id="ArialMT-32"/>
      </defs>
      <g style="fill:#262626;" transform="translate(272.507586828 230.4840625)scale(0.18 -0.18)">
       <use xlink:href="#ArialMT-33"/>
       <use x="55.615234375" xlink:href="#ArialMT-34"/>
       <use x="111.23046875" xlink:href="#ArialMT-32"/>
       <use x="166.845703125" xlink:href="#ArialMT-30"/>
       <use x="222.4609375" xlink:href="#ArialMT-30"/>
       <use x="278.076171875" xlink:href="#ArialMT-30"/>
       <use x="333.69140625" xlink:href="#ArialMT-30"/>
      </g>
     </g>
    </g>
    <g id="xtick_3">
     <g id="line2d_7">
      <path clip-path="url(#p234efec601)" d="M 415.834933 210.6 
L 415.834933 23.4 
" style="fill:none;stroke:#ffffff;stroke-linecap:round;"/>
     </g>
     <g id="line2d_8">
      <g>
       <use style="fill:#262626;stroke:#262626;" x="415.834933368" xlink:href="#mc897123cf0" y="210.6"/>
      </g>
     </g>
     <g id="line2d_9">
      <g>
       <use style="fill:#262626;stroke:#262626;" x="415.834933368" xlink:href="#mc897123cf0" y="23.4"/>
      </g>
     </g>
     <g id="text_3">
      <!-- 3440000 -->
      <g style="fill:#262626;" transform="translate(380.801027118 230.4840625)scale(0.18 -0.18)">
       <use xlink:href="#ArialMT-33"/>
       <use x="55.615234375" xlink:href="#ArialMT-34"/>
       <use x="111.23046875" xlink:href="#ArialMT-34"/>
       <use x="166.845703125" xlink:href="#ArialMT-30"/>
       <use x="222.4609375" xlink:href="#ArialMT-30"/>
       <use x="278.076171875" xlink:href="#ArialMT-30"/>
       <use x="333.69140625" xlink:href="#ArialMT-30"/>
      </g>
     </g>
    </g>
    <g id="xtick_4">
     <g id="line2d_10">
      <path clip-path="url(#p234efec601)" d="M 524.128374 210.6 
L 524.128374 23.4 
" style="fill:none;stroke:#ffffff;stroke-linecap:round;"/>
     </g>
     <g id="line2d_11">
      <g>
       <use style="fill:#262626;stroke:#262626;" x="524.128373658" xlink:href="#mc897123cf0" y="210.6"/>
      </g>
     </g>
     <g id="line2d_12">
      <g>
       <use style="fill:#262626;stroke:#262626;" x="524.128373658" xlink:href="#mc897123cf0" y="23.4"/>
      </g>
     </g>
     <g id="text_4">
      <!-- 3460000 -->
      <defs>
       <path d="M 49.75 54.046875 
L 41.015625 53.375 
Q 39.84375 58.546875 37.703125 60.890625 
Q 34.125 64.65625 28.90625 64.65625 
Q 24.703125 64.65625 21.53125 62.3125 
Q 17.390625 59.28125 14.984375 53.46875 
Q 12.59375 47.65625 12.5 36.921875 
Q 15.671875 41.75 20.265625 44.09375 
Q 24.859375 46.4375 29.890625 46.4375 
Q 38.671875 46.4375 44.84375 39.96875 
Q 51.03125 33.5 51.03125 23.25 
Q 51.03125 16.5 48.125 10.71875 
Q 45.21875 4.9375 40.140625 1.859375 
Q 35.0625 -1.21875 28.609375 -1.21875 
Q 17.625 -1.21875 10.6875 6.859375 
Q 3.765625 14.9375 3.765625 33.5 
Q 3.765625 54.25 11.421875 63.671875 
Q 18.109375 71.875 29.4375 71.875 
Q 37.890625 71.875 43.28125 67.140625 
Q 48.6875 62.40625 49.75 54.046875 
M 13.875 23.1875 
Q 13.875 18.65625 15.796875 14.5 
Q 17.71875 10.359375 21.1875 8.171875 
Q 24.65625 6 28.46875 6 
Q 34.03125 6 38.03125 10.484375 
Q 42.046875 14.984375 42.046875 22.703125 
Q 42.046875 30.125 38.078125 34.390625 
Q 34.125 38.671875 28.125 38.671875 
Q 22.171875 38.671875 18.015625 34.390625 
Q 13.875 30.125 13.875 23.1875 
" id="ArialMT-36"/>
      </defs>
      <g style="fill:#262626;" transform="translate(489.094467408 230.4840625)scale(0.18 -0.18)">
       <use xlink:href="#ArialMT-33"/>
       <use x="55.615234375" xlink:href="#ArialMT-34"/>
       <use x="111.23046875" xlink:href="#ArialMT-36"/>
       <use x="166.845703125" xlink:href="#ArialMT-30"/>
       <use x="222.4609375" xlink:href="#ArialMT-30"/>
       <use x="278.076171875" xlink:href="#ArialMT-30"/>
       <use x="333.69140625" xlink:href="#ArialMT-30"/>
      </g>
     </g>
    </g>
    <g id="xtick_5">
     <g id="line2d_13">
      <path clip-path="url(#p234efec601)" d="M 632.421814 210.6 
L 632.421814 23.4 
" style="fill:none;stroke:#ffffff;stroke-linecap:round;"/>
     </g>
     <g id="line2d_14">
      <g>
       <use style="fill:#262626;stroke:#262626;" x="632.421813947" xlink:href="#mc897123cf0" y="210.6"/>
      </g>
     </g>
     <g id="line2d_15">
      <g>
       <use style="fill:#262626;stroke:#262626;" x="632.421813947" xlink:href="#mc897123cf0" y="23.4"/>
      </g>
     </g>
     <g id="text_5">
      <!-- 3480000 -->
      <defs>
       <path d="M 17.671875 38.8125 
Q 12.203125 40.828125 9.5625 44.53125 
Q 6.9375 48.25 6.9375 53.421875 
Q 6.9375 61.234375 12.546875 66.546875 
Q 18.171875 71.875 27.484375 71.875 
Q 36.859375 71.875 42.578125 66.421875 
Q 48.296875 60.984375 48.296875 53.171875 
Q 48.296875 48.1875 45.671875 44.5 
Q 43.0625 40.828125 37.75 38.8125 
Q 44.34375 36.671875 47.78125 31.875 
Q 51.21875 27.09375 51.21875 20.453125 
Q 51.21875 11.28125 44.71875 5.03125 
Q 38.234375 -1.21875 27.640625 -1.21875 
Q 17.046875 -1.21875 10.546875 5.046875 
Q 4.046875 11.328125 4.046875 20.703125 
Q 4.046875 27.6875 7.59375 32.390625 
Q 11.140625 37.109375 17.671875 38.8125 
M 15.921875 53.71875 
Q 15.921875 48.640625 19.1875 45.40625 
Q 22.46875 42.1875 27.6875 42.1875 
Q 32.765625 42.1875 36.015625 45.375 
Q 39.265625 48.578125 39.265625 53.21875 
Q 39.265625 58.0625 35.90625 61.359375 
Q 32.5625 64.65625 27.59375 64.65625 
Q 22.5625 64.65625 19.234375 61.421875 
Q 15.921875 58.203125 15.921875 53.71875 
M 13.09375 20.65625 
Q 13.09375 16.890625 14.875 13.375 
Q 16.65625 9.859375 20.171875 7.921875 
Q 23.6875 6 27.734375 6 
Q 34.03125 6 38.125 10.046875 
Q 42.234375 14.109375 42.234375 20.359375 
Q 42.234375 26.703125 38.015625 30.859375 
Q 33.796875 35.015625 27.4375 35.015625 
Q 21.234375 35.015625 17.15625 30.90625 
Q 13.09375 26.8125 13.09375 20.65625 
" id="ArialMT-38"/>
      </defs>
      <g style="fill:#262626;" transform="translate(597.387907697 230.4840625)scale(0.18 -0.18)">
       <use xlink:href="#ArialMT-33"/>
       <use x="55.615234375" xlink:href="#ArialMT-34"/>
       <use x="111.23046875" xlink:href="#ArialMT-38"/>
       <use x="166.845703125" xlink:href="#ArialMT-30"/>
       <use x="222.4609375" xlink:href="#ArialMT-30"/>
       <use x="278.076171875" xlink:href="#ArialMT-30"/>
       <use x="333.69140625" xlink:href="#ArialMT-30"/>
      </g>
     </g>
    </g>
    <g id="xtick_6">
     <g id="line2d_16">
      <path clip-path="url(#p234efec601)" d="M 740.715254 210.6 
L 740.715254 23.4 
" style="fill:none;stroke:#ffffff;stroke-linecap:round;"/>
     </g>
     <g id="line2d_17">
      <g>
       <use style="fill:#262626;stroke:#262626;" x="740.715254237" xlink:href="#mc897123cf0" y="210.6"/>
      </g>
     </g>
     <g id="line2d_18">
      <g>
       <use style="fill:#262626;stroke:#262626;" x="740.715254237" xlink:href="#mc897123cf0" y="23.4"/>
      </g>
     </g>
     <g id="text_6">
      <!-- 3500000 -->
      <defs>
       <path d="M 4.15625 18.75 
L 13.375 19.53125 
Q 14.40625 12.796875 18.140625 9.390625 
Q 21.875 6 27.15625 6 
Q 33.5 6 37.890625 10.78125 
Q 42.28125 15.578125 42.28125 23.484375 
Q 42.28125 31 38.0625 35.34375 
Q 33.84375 39.703125 27 39.703125 
Q 22.75 39.703125 19.328125 37.765625 
Q 15.921875 35.84375 13.96875 32.765625 
L 5.71875 33.84375 
L 12.640625 70.609375 
L 48.25 70.609375 
L 48.25 62.203125 
L 19.671875 62.203125 
L 15.828125 42.96875 
Q 22.265625 47.46875 29.34375 47.46875 
Q 38.71875 47.46875 45.15625 40.96875 
Q 51.609375 34.46875 51.609375 24.265625 
Q 51.609375 14.546875 45.953125 7.46875 
Q 39.0625 -1.21875 27.15625 -1.21875 
Q 17.390625 -1.21875 11.203125 4.25 
Q 5.03125 9.71875 4.15625 18.75 
" id="ArialMT-35"/>
      </defs>
      <g style="fill:#262626;" transform="translate(705.681347987 230.4840625)scale(0.18 -0.18)">
       <use xlink:href="#ArialMT-33"/>
       <use x="55.615234375" xlink:href="#ArialMT-35"/>
       <use x="111.23046875" xlink:href="#ArialMT-30"/>
       <use x="166.845703125" xlink:href="#ArialMT-30"/>
       <use x="222.4609375" xlink:href="#ArialMT-30"/>
       <use x="278.076171875" xlink:href="#ArialMT-30"/>
       <use x="333.69140625" xlink:href="#ArialMT-30"/>
      </g>
     </g>
    </g>
    <g id="text_7">
     <!-- Location -->
     <defs>
      <path d="M 40.4375 19 
L 49.078125 17.875 
Q 47.65625 8.9375 41.8125 3.875 
Q 35.984375 -1.171875 27.484375 -1.171875 
Q 16.84375 -1.171875 10.375 5.78125 
Q 3.90625 12.75 3.90625 25.734375 
Q 3.90625 34.125 6.6875 40.421875 
Q 9.46875 46.734375 15.15625 49.875 
Q 20.84375 53.03125 27.546875 53.03125 
Q 35.984375 53.03125 41.359375 48.75 
Q 46.734375 44.484375 48.25 36.625 
L 39.703125 35.296875 
Q 38.484375 40.53125 35.375 43.15625 
Q 32.28125 45.796875 27.875 45.796875 
Q 21.234375 45.796875 17.078125 41.03125 
Q 12.9375 36.28125 12.9375 25.984375 
Q 12.9375 15.53125 16.9375 10.796875 
Q 20.953125 6.0625 27.390625 6.0625 
Q 32.5625 6.0625 36.03125 9.234375 
Q 39.5 12.40625 40.4375 19 
" id="ArialMT-63"/>
      <path d="M 40.4375 6.390625 
Q 35.546875 2.25 31.03125 0.53125 
Q 26.515625 -1.171875 21.34375 -1.171875 
Q 12.796875 -1.171875 8.203125 3 
Q 3.609375 7.171875 3.609375 13.671875 
Q 3.609375 17.484375 5.34375 20.625 
Q 7.078125 23.78125 9.890625 25.6875 
Q 12.703125 27.59375 16.21875 28.5625 
Q 18.796875 29.25 24.03125 29.890625 
Q 34.671875 31.15625 39.703125 32.90625 
Q 39.75 34.71875 39.75 35.203125 
Q 39.75 40.578125 37.25 42.78125 
Q 33.890625 45.75 27.25 45.75 
Q 21.046875 45.75 18.09375 43.578125 
Q 15.140625 41.40625 13.71875 35.890625 
L 5.125 37.0625 
Q 6.296875 42.578125 8.984375 45.96875 
Q 11.671875 49.359375 16.75 51.1875 
Q 21.828125 53.03125 28.515625 53.03125 
Q 35.15625 53.03125 39.296875 51.46875 
Q 43.453125 49.90625 45.40625 47.53125 
Q 47.359375 45.171875 48.140625 41.546875 
Q 48.578125 39.3125 48.578125 33.453125 
L 48.578125 21.734375 
Q 48.578125 9.46875 49.140625 6.21875 
Q 49.703125 2.984375 51.375 0 
L 42.1875 0 
Q 40.828125 2.734375 40.4375 6.390625 
M 39.703125 26.03125 
Q 34.90625 24.078125 25.34375 22.703125 
Q 19.921875 21.921875 17.671875 20.9375 
Q 15.4375 19.96875 14.203125 18.09375 
Q 12.984375 16.21875 12.984375 13.921875 
Q 12.984375 10.40625 15.640625 8.0625 
Q 18.3125 5.71875 23.4375 5.71875 
Q 28.515625 5.71875 32.46875 7.9375 
Q 36.421875 10.15625 38.28125 14.015625 
Q 39.703125 17 39.703125 22.796875 
z
" id="ArialMT-61"/>
      <path d="M 25.78125 7.859375 
L 27.046875 0.09375 
Q 23.34375 -0.6875 20.40625 -0.6875 
Q 15.625 -0.6875 12.984375 0.828125 
Q 10.359375 2.34375 9.28125 4.8125 
Q 8.203125 7.28125 8.203125 15.1875 
L 8.203125 45.015625 
L 1.765625 45.015625 
L 1.765625 51.859375 
L 8.203125 51.859375 
L 8.203125 64.703125 
L 16.9375 69.96875 
L 16.9375 51.859375 
L 25.78125 51.859375 
L 25.78125 45.015625 
L 16.9375 45.015625 
L 16.9375 14.703125 
Q 16.9375 10.9375 17.40625 9.859375 
Q 17.875 8.796875 18.921875 8.15625 
Q 19.96875 7.515625 21.921875 7.515625 
Q 23.390625 7.515625 25.78125 7.859375 
" id="ArialMT-74"/>
      <path d="M 6.640625 61.46875 
L 6.640625 71.578125 
L 15.4375 71.578125 
L 15.4375 61.46875 
z
M 6.640625 0 
L 6.640625 51.859375 
L 15.4375 51.859375 
L 15.4375 0 
z
" id="ArialMT-69"/>
      <path d="M 3.328125 25.921875 
Q 3.328125 40.328125 11.328125 47.265625 
Q 18.015625 53.03125 27.640625 53.03125 
Q 38.328125 53.03125 45.109375 46.015625 
Q 51.90625 39.015625 51.90625 26.65625 
Q 51.90625 16.65625 48.90625 10.90625 
Q 45.90625 5.171875 40.15625 2 
Q 34.421875 -1.171875 27.640625 -1.171875 
Q 16.75 -1.171875 10.03125 5.8125 
Q 3.328125 12.796875 3.328125 25.921875 
M 12.359375 25.921875 
Q 12.359375 15.96875 16.703125 11.015625 
Q 21.046875 6.0625 27.640625 6.0625 
Q 34.1875 6.0625 38.53125 11.03125 
Q 42.875 16.015625 42.875 26.21875 
Q 42.875 35.84375 38.5 40.796875 
Q 34.125 45.75 27.640625 45.75 
Q 21.046875 45.75 16.703125 40.8125 
Q 12.359375 35.890625 12.359375 25.921875 
" id="ArialMT-6f"/>
      <path d="M 6.59375 0 
L 6.59375 51.859375 
L 14.5 51.859375 
L 14.5 44.484375 
Q 20.21875 53.03125 31 53.03125 
Q 35.6875 53.03125 39.625 51.34375 
Q 43.5625 49.65625 45.515625 46.921875 
Q 47.46875 44.1875 48.25 40.4375 
Q 48.734375 37.984375 48.734375 31.890625 
L 48.734375 0 
L 39.9375 0 
L 39.9375 31.546875 
Q 39.9375 36.921875 38.90625 39.578125 
Q 37.890625 42.234375 35.28125 43.8125 
Q 32.671875 45.40625 29.15625 45.40625 
Q 23.53125 45.40625 19.453125 41.84375 
Q 15.375 38.28125 15.375 28.328125 
L 15.375 0 
z
" id="ArialMT-6e"/>
      <path d="M 7.328125 0 
L 7.328125 71.578125 
L 16.796875 71.578125 
L 16.796875 8.453125 
L 52.046875 8.453125 
L 52.046875 0 
z
" id="ArialMT-4c"/>
     </defs>
     <g style="fill:#262626;" transform="translate(408.77578125 251.945625)scale(0.18 -0.18)">
      <use xlink:href="#ArialMT-4c"/>
      <use x="55.615234375" xlink:href="#ArialMT-6f"/>
      <use x="111.23046875" xlink:href="#ArialMT-63"/>
      <use x="161.23046875" xlink:href="#ArialMT-61"/>
      <use x="216.845703125" xlink:href="#ArialMT-74"/>
      <use x="244.62890625" xlink:href="#ArialMT-69"/>
      <use x="266.845703125" xlink:href="#ArialMT-6f"/>
      <use x="322.4609375" xlink:href="#ArialMT-6e"/>
     </g>
    </g>
   </g>
   <g id="matplotlib.axis_2">
    <g id="ytick_1">
     <g id="line2d_19">
      <path clip-path="url(#p234efec601)" d="M 108 210.6 
L 777.6 210.6 
" style="fill:none;stroke:#ffffff;stroke-linecap:round;"/>
     </g>
     <g id="line2d_20">
      <g>
       <use style="fill:#262626;stroke:#262626;" x="108.0" xlink:href="#mc897123cf0" y="210.6"/>
      </g>
     </g>
     <g id="line2d_21">
      <g>
       <use style="fill:#262626;stroke:#262626;" x="777.6" xlink:href="#mc897123cf0" y="210.6"/>
      </g>
     </g>
     <g id="text_8">
      <!-- 0.0 -->
      <defs>
       <path d="M 9.078125 0 
L 9.078125 10.015625 
L 19.09375 10.015625 
L 19.09375 0 
z
" id="ArialMT-2e"/>
      </defs>
      <g style="fill:#262626;" transform="translate(75.98 215.25328125)scale(0.18 -0.18)">
       <use xlink:href="#ArialMT-30"/>
       <use x="55.615234375" xlink:href="#ArialMT-2e"/>
       <use x="83.3984375" xlink:href="#ArialMT-30"/>
      </g>
     </g>
    </g>
    <g id="ytick_2">
     <g id="line2d_22">
      <path clip-path="url(#p234efec601)" d="M 108 179.4 
L 777.6 179.4 
" style="fill:none;stroke:#ffffff;stroke-linecap:round;"/>
     </g>
     <g id="line2d_23">
      <g>
       <use style="fill:#262626;stroke:#262626;" x="108.0" xlink:href="#mc897123cf0" y="179.4"/>
      </g>
     </g>
     <g id="line2d_24">
      <g>
       <use style="fill:#262626;stroke:#262626;" x="777.6" xlink:href="#mc897123cf0" y="179.4"/>
      </g>
     </g>
     <g id="text_9">
      <!-- 0.2 -->
      <g style="fill:#262626;" transform="translate(75.98 184.05328125)scale(0.18 -0.18)">
       <use xlink:href="#ArialMT-30"/>
       <use x="55.615234375" xlink:href="#ArialMT-2e"/>
       <use x="83.3984375" xlink:href="#ArialMT-32"/>
      </g>
     </g>
    </g>
    <g id="ytick_3">
     <g id="line2d_25">
      <path clip-path="url(#p234efec601)" d="M 108 148.2 
L 777.6 148.2 
" style="fill:none;stroke:#ffffff;stroke-linecap:round;"/>
     </g>
     <g id="line2d_26">
      <g>
       <use style="fill:#262626;stroke:#262626;" x="108.0" xlink:href="#mc897123cf0" y="148.2"/>
      </g>
     </g>
     <g id="line2d_27">
      <g>
       <use style="fill:#262626;stroke:#262626;" x="777.6" xlink:href="#mc897123cf0" y="148.2"/>
      </g>
     </g>
     <g id="text_10">
      <!-- 0.4 -->
      <g style="fill:#262626;" transform="translate(75.98 152.85328125)scale(0.18 -0.18)">
       <use xlink:href="#ArialMT-30"/>
       <use x="55.615234375" xlink:href="#ArialMT-2e"/>
       <use x="83.3984375" xlink:href="#ArialMT-34"/>
      </g>
     </g>
    </g>
    <g id="ytick_4">
     <g id="line2d_28">
      <path clip-path="url(#p234efec601)" d="M 108 117 
L 777.6 117 
" style="fill:none;stroke:#ffffff;stroke-linecap:round;"/>
     </g>
     <g id="line2d_29">
      <g>
       <use style="fill:#262626;stroke:#262626;" x="108.0" xlink:href="#mc897123cf0" y="117.0"/>
      </g>
     </g>
     <g id="line2d_30">
      <g>
       <use style="fill:#262626;stroke:#262626;" x="777.6" xlink:href="#mc897123cf0" y="117.0"/>
      </g>
     </g>
     <g id="text_11">
      <!-- 0.6 -->
      <g style="fill:#262626;" transform="translate(75.98 121.65328125)scale(0.18 -0.18)">
       <use xlink:href="#ArialMT-30"/>
       <use x="55.615234375" xlink:href="#ArialMT-2e"/>
       <use x="83.3984375" xlink:href="#ArialMT-36"/>
      </g>
     </g>
    </g>
    <g id="ytick_5">
     <g id="line2d_31">
      <path clip-path="url(#p234efec601)" d="M 108 85.8 
L 777.6 85.8 
" style="fill:none;stroke:#ffffff;stroke-linecap:round;"/>
     </g>
     <g id="line2d_32">
      <g>
       <use style="fill:#262626;stroke:#262626;" x="108.0" xlink:href="#mc897123cf0" y="85.8"/>
      </g>
     </g>
     <g id="line2d_33">
      <g>
       <use style="fill:#262626;stroke:#262626;" x="777.6" xlink:href="#mc897123cf0" y="85.8"/>
      </g>
     </g>
     <g id="text_12">
      <!-- 0.8 -->
      <g style="fill:#262626;" transform="translate(75.98 90.45328125)scale(0.18 -0.18)">
       <use xlink:href="#ArialMT-30"/>
       <use x="55.615234375" xlink:href="#ArialMT-2e"/>
       <use x="83.3984375" xlink:href="#ArialMT-38"/>
      </g>
     </g>
    </g>
    <g id="ytick_6">
     <g id="line2d_34">
      <path clip-path="url(#p234efec601)" d="M 108 54.6 
L 777.6 54.6 
" style="fill:none;stroke:#ffffff;stroke-linecap:round;"/>
     </g>
     <g id="line2d_35">
      <g>
       <use style="fill:#262626;stroke:#262626;" x="108.0" xlink:href="#mc897123cf0" y="54.6"/>
      </g>
     </g>
     <g id="line2d_36">
      <g>
       <use style="fill:#262626;stroke:#262626;" x="777.6" xlink:href="#mc897123cf0" y="54.6"/>
      </g>
     </g>
     <g id="text_13">
      <!-- 1.0 -->
      <defs>
       <path d="M 37.25 0 
L 28.46875 0 
L 28.46875 56 
Q 25.296875 52.984375 20.140625 49.953125 
Q 14.984375 46.921875 10.890625 45.40625 
L 10.890625 53.90625 
Q 18.265625 57.375 23.78125 62.296875 
Q 29.296875 67.234375 31.59375 71.875 
L 37.25 71.875 
z
" id="ArialMT-31"/>
      </defs>
      <g style="fill:#262626;" transform="translate(75.98 59.25328125)scale(0.18 -0.18)">
       <use xlink:href="#ArialMT-31"/>
       <use x="55.615234375" xlink:href="#ArialMT-2e"/>
       <use x="83.3984375" xlink:href="#ArialMT-30"/>
      </g>
     </g>
    </g>
    <g id="ytick_7">
     <g id="line2d_37">
      <path clip-path="url(#p234efec601)" d="M 108 23.4 
L 777.6 23.4 
" style="fill:none;stroke:#ffffff;stroke-linecap:round;"/>
     </g>
     <g id="line2d_38">
      <g>
       <use style="fill:#262626;stroke:#262626;" x="108.0" xlink:href="#mc897123cf0" y="23.4"/>
      </g>
     </g>
     <g id="line2d_39">
      <g>
       <use style="fill:#262626;stroke:#262626;" x="777.6" xlink:href="#mc897123cf0" y="23.4"/>
      </g>
     </g>
     <g id="text_14">
      <!-- 1.2 -->
      <g style="fill:#262626;" transform="translate(75.98 28.05328125)scale(0.18 -0.18)">
       <use xlink:href="#ArialMT-31"/>
       <use x="55.615234375" xlink:href="#ArialMT-2e"/>
       <use x="83.3984375" xlink:href="#ArialMT-32"/>
      </g>
     </g>
    </g>
    <g id="text_15">
     <!-- Posterior probabilities -->
     <defs>
      <path d="M 14.703125 0 
L 6.546875 0 
L 6.546875 71.578125 
L 15.328125 71.578125 
L 15.328125 46.046875 
Q 20.90625 53.03125 29.546875 53.03125 
Q 34.328125 53.03125 38.59375 51.09375 
Q 42.875 49.171875 45.625 45.671875 
Q 48.390625 42.1875 49.953125 37.25 
Q 51.515625 32.328125 51.515625 26.703125 
Q 51.515625 13.375 44.921875 6.09375 
Q 38.328125 -1.171875 29.109375 -1.171875 
Q 19.921875 -1.171875 14.703125 6.5 
z
M 14.59375 26.3125 
Q 14.59375 17 17.140625 12.84375 
Q 21.296875 6.0625 28.375 6.0625 
Q 34.125 6.0625 38.328125 11.0625 
Q 42.53125 16.0625 42.53125 25.984375 
Q 42.53125 36.140625 38.5 40.96875 
Q 34.46875 45.796875 28.765625 45.796875 
Q 23 45.796875 18.796875 40.796875 
Q 14.59375 35.796875 14.59375 26.3125 
" id="ArialMT-62"/>
      <path d="M 42.09375 16.703125 
L 51.171875 15.578125 
Q 49.03125 7.625 43.21875 3.21875 
Q 37.40625 -1.171875 28.375 -1.171875 
Q 17 -1.171875 10.328125 5.828125 
Q 3.65625 12.84375 3.65625 25.484375 
Q 3.65625 38.578125 10.390625 45.796875 
Q 17.140625 53.03125 27.875 53.03125 
Q 38.28125 53.03125 44.875 45.953125 
Q 51.46875 38.875 51.46875 26.03125 
Q 51.46875 25.25 51.421875 23.6875 
L 12.75 23.6875 
Q 13.234375 15.140625 17.578125 10.59375 
Q 21.921875 6.0625 28.421875 6.0625 
Q 33.25 6.0625 36.671875 8.59375 
Q 40.09375 11.140625 42.09375 16.703125 
M 13.234375 30.90625 
L 42.1875 30.90625 
Q 41.609375 37.453125 38.875 40.71875 
Q 34.671875 45.796875 27.984375 45.796875 
Q 21.921875 45.796875 17.796875 41.75 
Q 13.671875 37.703125 13.234375 30.90625 
" id="ArialMT-65"/>
      <path d="M 7.71875 0 
L 7.71875 71.578125 
L 34.71875 71.578125 
Q 41.84375 71.578125 45.609375 70.90625 
Q 50.875 70.015625 54.4375 67.546875 
Q 58.015625 65.09375 60.1875 60.640625 
Q 62.359375 56.203125 62.359375 50.875 
Q 62.359375 41.75 56.546875 35.421875 
Q 50.734375 29.109375 35.546875 29.109375 
L 17.1875 29.109375 
L 17.1875 0 
z
M 17.1875 37.546875 
L 35.6875 37.546875 
Q 44.875 37.546875 48.734375 40.96875 
Q 52.59375 44.390625 52.59375 50.59375 
Q 52.59375 55.078125 50.3125 58.265625 
Q 48.046875 61.46875 44.34375 62.5 
Q 41.9375 63.140625 35.5 63.140625 
L 17.1875 63.140625 
z
" id="ArialMT-50"/>
      <path d="M 6.59375 -19.875 
L 6.59375 51.859375 
L 14.59375 51.859375 
L 14.59375 45.125 
Q 17.4375 49.078125 21 51.046875 
Q 24.5625 53.03125 29.640625 53.03125 
Q 36.28125 53.03125 41.359375 49.609375 
Q 46.4375 46.1875 49.015625 39.953125 
Q 51.609375 33.734375 51.609375 26.3125 
Q 51.609375 18.359375 48.75 11.984375 
Q 45.90625 5.609375 40.453125 2.21875 
Q 35.015625 -1.171875 29 -1.171875 
Q 24.609375 -1.171875 21.109375 0.6875 
Q 17.625 2.546875 15.375 5.375 
L 15.375 -19.875 
z
M 14.546875 25.640625 
Q 14.546875 15.625 18.59375 10.84375 
Q 22.65625 6.0625 28.421875 6.0625 
Q 34.28125 6.0625 38.453125 11.015625 
Q 42.625 15.96875 42.625 26.375 
Q 42.625 36.28125 38.546875 41.203125 
Q 34.46875 46.140625 28.8125 46.140625 
Q 23.1875 46.140625 18.859375 40.890625 
Q 14.546875 35.640625 14.546875 25.640625 
" id="ArialMT-70"/>
      <path d="M 6.5 0 
L 6.5 51.859375 
L 14.40625 51.859375 
L 14.40625 44 
Q 17.4375 49.515625 20 51.265625 
Q 22.5625 53.03125 25.640625 53.03125 
Q 30.078125 53.03125 34.671875 50.203125 
L 31.640625 42.046875 
Q 28.421875 43.953125 25.203125 43.953125 
Q 22.3125 43.953125 20.015625 42.21875 
Q 17.71875 40.484375 16.75 37.40625 
Q 15.28125 32.71875 15.28125 27.15625 
L 15.28125 0 
z
" id="ArialMT-72"/>
      <path d="M 3.078125 15.484375 
L 11.765625 16.84375 
Q 12.5 11.625 15.84375 8.84375 
Q 19.1875 6.0625 25.203125 6.0625 
Q 31.25 6.0625 34.171875 8.515625 
Q 37.109375 10.984375 37.109375 14.3125 
Q 37.109375 17.28125 34.515625 19 
Q 32.71875 20.171875 25.53125 21.96875 
Q 15.875 24.421875 12.140625 26.203125 
Q 8.40625 27.984375 6.46875 31.125 
Q 4.546875 34.28125 4.546875 38.09375 
Q 4.546875 41.546875 6.125 44.5 
Q 7.71875 47.46875 10.453125 49.421875 
Q 12.5 50.921875 16.03125 51.96875 
Q 19.578125 53.03125 23.640625 53.03125 
Q 29.734375 53.03125 34.34375 51.265625 
Q 38.96875 49.515625 41.15625 46.5 
Q 43.359375 43.5 44.1875 38.484375 
L 35.59375 37.3125 
Q 35.015625 41.3125 32.203125 43.546875 
Q 29.390625 45.796875 24.265625 45.796875 
Q 18.21875 45.796875 15.625 43.796875 
Q 13.03125 41.796875 13.03125 39.109375 
Q 13.03125 37.40625 14.109375 36.03125 
Q 15.1875 34.625 17.484375 33.6875 
Q 18.796875 33.203125 25.25 31.453125 
Q 34.578125 28.953125 38.25 27.359375 
Q 41.9375 25.78125 44.03125 22.75 
Q 46.140625 19.734375 46.140625 15.234375 
Q 46.140625 10.84375 43.578125 6.953125 
Q 41.015625 3.078125 36.171875 0.953125 
Q 31.34375 -1.171875 25.25 -1.171875 
Q 15.140625 -1.171875 9.84375 3.03125 
Q 4.546875 7.234375 3.078125 15.484375 
" id="ArialMT-73"/>
      <path d="M 6.390625 0 
L 6.390625 71.578125 
L 15.1875 71.578125 
L 15.1875 0 
z
" id="ArialMT-6c"/>
      <path id="ArialMT-20"/>
     </defs>
     <g style="fill:#262626;" transform="translate(67.4025 203.53640625)rotate(-90.0)scale(0.18 -0.18)">
      <use xlink:href="#ArialMT-50"/>
      <use x="66.69921875" xlink:href="#ArialMT-6f"/>
      <use x="122.314453125" xlink:href="#ArialMT-73"/>
      <use x="172.314453125" xlink:href="#ArialMT-74"/>
      <use x="200.09765625" xlink:href="#ArialMT-65"/>
      <use x="255.712890625" xlink:href="#ArialMT-72"/>
      <use x="289.013671875" xlink:href="#ArialMT-69"/>
      <use x="311.23046875" xlink:href="#ArialMT-6f"/>
      <use x="366.845703125" xlink:href="#ArialMT-72"/>
      <use x="400.146484375" xlink:href="#ArialMT-20"/>
      <use x="427.9296875" xlink:href="#ArialMT-70"/>
      <use x="483.544921875" xlink:href="#ArialMT-72"/>
      <use x="516.845703125" xlink:href="#ArialMT-6f"/>
      <use x="572.4609375" xlink:href="#ArialMT-62"/>
      <use x="628.076171875" xlink:href="#ArialMT-61"/>
      <use x="683.69140625" xlink:href="#ArialMT-62"/>
      <use x="739.306640625" xlink:href="#ArialMT-69"/>
      <use x="761.5234375" xlink:href="#ArialMT-6c"/>
      <use x="783.740234375" xlink:href="#ArialMT-69"/>
      <use x="805.95703125" xlink:href="#ArialMT-74"/>
      <use x="833.740234375" xlink:href="#ArialMT-69"/>
      <use x="855.95703125" xlink:href="#ArialMT-65"/>
      <use x="911.572265625" xlink:href="#ArialMT-73"/>
     </g>
    </g>
   </g>
   <g id="PathCollection_1">
    <defs>
     <path d="M 0 2.236068 
C 0.593012 2.236068 1.161816 2.000462 1.581139 1.581139 
C 2.000462 1.161816 2.236068 0.593012 2.236068 0 
C 2.236068 -0.593012 2.000462 -1.161816 1.581139 -1.581139 
C 1.161816 -2.000462 0.593012 -2.236068 0 -2.236068 
C -0.593012 -2.236068 -1.161816 -2.000462 -1.581139 -1.581139 
C -2.000462 -1.161816 -2.236068 -0.593012 -2.236068 0 
C -2.236068 0.593012 -2.000462 1.161816 -1.581139 1.581139 
C -1.161816 2.000462 -0.593012 2.236068 0 2.236068 
z
" id="mbacb0b4fa1" style="stroke:#2980b9;stroke-width:0.3;"/>
    </defs>
    <g clip-path="url(#p234efec601)">
     <use style="fill:#2980b9;stroke:#2980b9;stroke-width:0.3;" x="108.0" xlink:href="#mbacb0b4fa1" y="210.599353938"/>
     <use style="fill:#2980b9;stroke:#2980b9;stroke-width:0.3;" x="110.84811748" xlink:href="#mbacb0b4fa1" y="210.599246991"/>
     <use style="fill:#2980b9;stroke:#2980b9;stroke-width:0.3;" x="117.183283737" xlink:href="#mbacb0b4fa1" y="210.599994992"/>
     <use style="fill:#2980b9;stroke:#2980b9;stroke-width:0.3;" x="123.301863113" xlink:href="#mbacb0b4fa1" y="210.597736939"/>
     <use style="fill:#2980b9;stroke:#2980b9;stroke-width:0.3;" x="129.658688058" xlink:href="#mbacb0b4fa1" y="210.599233854"/>
     <use style="fill:#2980b9;stroke:#2980b9;stroke-width:0.3;" x="144.922648467" xlink:href="#mbacb0b4fa1" y="210.599951439"/>
     <use style="fill:#2980b9;stroke:#2980b9;stroke-width:0.3;" x="145.891874757" xlink:href="#mbacb0b4fa1" y="210.599965386"/>
     <use style="fill:#2980b9;stroke:#2980b9;stroke-width:0.3;" x="149.974537456" xlink:href="#mbacb0b4fa1" y="210.57003864"/>
     <use style="fill:#2980b9;stroke:#2980b9;stroke-width:0.3;" x="157.414296804" xlink:href="#mbacb0b4fa1" y="210.599992303"/>
     <use style="fill:#2980b9;stroke:#2980b9;stroke-width:0.3;" x="168.785108035" xlink:href="#mbacb0b4fa1" y="210.599996534"/>
     <use style="fill:#2980b9;stroke:#2980b9;stroke-width:0.3;" x="176.143647302" xlink:href="#mbacb0b4fa1" y="210.59995217"/>
     <use style="fill:#2980b9;stroke:#2980b9;stroke-width:0.3;" x="190.530430845" xlink:href="#mbacb0b4fa1" y="210.599902921"/>
     <use style="fill:#2980b9;stroke:#2980b9;stroke-width:0.3;" x="229.97631647" xlink:href="#mbacb0b4fa1" y="210.599974481"/>
     <use style="fill:#2980b9;stroke:#2980b9;stroke-width:0.3;" x="248.110053047" xlink:href="#mbacb0b4fa1" y="210.599975215"/>
     <use style="fill:#2980b9;stroke:#2980b9;stroke-width:0.3;" x="249.923968172" xlink:href="#mbacb0b4fa1" y="210.599935354"/>
     <use style="fill:#2980b9;stroke:#2980b9;stroke-width:0.3;" x="259.405058869" xlink:href="#mbacb0b4fa1" y="210.59999035"/>
     <use style="fill:#2980b9;stroke:#2980b9;stroke-width:0.3;" x="265.285392677" xlink:href="#mbacb0b4fa1" y="210.59997581"/>
     <use style="fill:#2980b9;stroke:#2980b9;stroke-width:0.3;" x="272.957982921" xlink:href="#mbacb0b4fa1" y="210.599988465"/>
     <use style="fill:#2980b9;stroke:#2980b9;stroke-width:0.3;" x="278.594656489" xlink:href="#mbacb0b4fa1" y="210.599992968"/>
     <use style="fill:#2980b9;stroke:#2980b9;stroke-width:0.3;" x="290.647716393" xlink:href="#mbacb0b4fa1" y="210.599993301"/>
     <use style="fill:#2980b9;stroke:#2980b9;stroke-width:0.3;" x="293.91817829" xlink:href="#mbacb0b4fa1" y="210.599772671"/>
     <use style="fill:#2980b9;stroke:#2980b9;stroke-width:0.3;" x="297.166981498" xlink:href="#mbacb0b4fa1" y="210.599164678"/>
     <use style="fill:#2980b9;stroke:#2980b9;stroke-width:0.3;" x="297.605569931" xlink:href="#mbacb0b4fa1" y="210.599993945"/>
     <use style="fill:#2980b9;stroke:#2980b9;stroke-width:0.3;" x="305.792554017" xlink:href="#mbacb0b4fa1" y="210.599888896"/>
     <use style="fill:#2980b9;stroke:#2980b9;stroke-width:0.3;" x="306.675145556" xlink:href="#mbacb0b4fa1" y="210.588405503"/>
     <use style="fill:#2980b9;stroke:#2980b9;stroke-width:0.3;" x="307.46568767" xlink:href="#mbacb0b4fa1" y="210.599991293"/>
     <use style="fill:#2980b9;stroke:#2980b9;stroke-width:0.3;" x="309.008869194" xlink:href="#mbacb0b4fa1" y="210.59830648"/>
     <use style="fill:#2980b9;stroke:#2980b9;stroke-width:0.3;" x="309.550336395" xlink:href="#mbacb0b4fa1" y="210.599931495"/>
     <use style="fill:#2980b9;stroke:#2980b9;stroke-width:0.3;" x="319.513332902" xlink:href="#mbacb0b4fa1" y="210.589665764"/>
     <use style="fill:#2980b9;stroke:#2980b9;stroke-width:0.3;" x="326.178794152" xlink:href="#mbacb0b4fa1" y="210.599995576"/>
     <use style="fill:#2980b9;stroke:#2980b9;stroke-width:0.3;" x="330.450970371" xlink:href="#mbacb0b4fa1" y="210.599990818"/>
     <use style="fill:#2980b9;stroke:#2980b9;stroke-width:0.3;" x="334.777293311" xlink:href="#mbacb0b4fa1" y="210.599977991"/>
     <use style="fill:#2980b9;stroke:#2980b9;stroke-width:0.3;" x="343.083400181" xlink:href="#mbacb0b4fa1" y="210.59997847"/>
     <use style="fill:#2980b9;stroke:#2980b9;stroke-width:0.3;" x="358.531459438" xlink:href="#mbacb0b4fa1" y="210.599982429"/>
     <use style="fill:#2980b9;stroke:#2980b9;stroke-width:0.3;" x="368.954703066" xlink:href="#mbacb0b4fa1" y="210.567239376"/>
     <use style="fill:#2980b9;stroke:#2980b9;stroke-width:0.3;" x="388.138886014" xlink:href="#mbacb0b4fa1" y="208.8813012"/>
     <use style="fill:#2980b9;stroke:#2980b9;stroke-width:0.3;" x="394.252050718" xlink:href="#mbacb0b4fa1" y="210.599822255"/>
     <use style="fill:#2980b9;stroke:#2980b9;stroke-width:0.3;" x="394.511954975" xlink:href="#mbacb0b4fa1" y="210.599996139"/>
     <use style="fill:#2980b9;stroke:#2980b9;stroke-width:0.3;" x="397.360072454" xlink:href="#mbacb0b4fa1" y="210.599995965"/>
     <use style="fill:#2980b9;stroke:#2980b9;stroke-width:0.3;" x="400.056579118" xlink:href="#mbacb0b4fa1" y="210.599858849"/>
     <use style="fill:#2980b9;stroke:#2980b9;stroke-width:0.3;" x="400.608875663" xlink:href="#mbacb0b4fa1" y="210.597873205"/>
     <use style="fill:#2980b9;stroke:#2980b9;stroke-width:0.3;" x="401.258636305" xlink:href="#mbacb0b4fa1" y="210.599986841"/>
     <use style="fill:#2980b9;stroke:#2980b9;stroke-width:0.3;" x="408.487223444" xlink:href="#mbacb0b4fa1" y="210.589961525"/>
     <use style="fill:#2980b9;stroke:#2980b9;stroke-width:0.3;" x="413.69072325" xlink:href="#mbacb0b4fa1" y="210.599839818"/>
     <use style="fill:#2980b9;stroke:#2980b9;stroke-width:0.3;" x="416.360156553" xlink:href="#mbacb0b4fa1" y="210.599938502"/>
     <use style="fill:#2980b9;stroke:#2980b9;stroke-width:0.3;" x="427.037889766" xlink:href="#mbacb0b4fa1" y="210.599996465"/>
     <use style="fill:#2980b9;stroke:#2980b9;stroke-width:0.3;" x="428.066677449" xlink:href="#mbacb0b4fa1" y="210.599995607"/>
     <use style="fill:#2980b9;stroke:#2980b9;stroke-width:0.3;" x="429.588200285" xlink:href="#mbacb0b4fa1" y="210.599973387"/>
     <use style="fill:#2980b9;stroke:#2980b9;stroke-width:0.3;" x="429.642347005" xlink:href="#mbacb0b4fa1" y="210.599995733"/>
     <use style="fill:#2980b9;stroke:#2980b9;stroke-width:0.3;" x="437.120009057" xlink:href="#mbacb0b4fa1" y="210.59645554"/>
     <use style="fill:#2980b9;stroke:#2980b9;stroke-width:0.3;" x="440.217201449" xlink:href="#mbacb0b4fa1" y="210.586518667"/>
     <use style="fill:#2980b9;stroke:#2980b9;stroke-width:0.3;" x="440.70452193" xlink:href="#mbacb0b4fa1" y="210.59721969"/>
     <use style="fill:#2980b9;stroke:#2980b9;stroke-width:0.3;" x="441.229745116" xlink:href="#mbacb0b4fa1" y="210.599976592"/>
     <use style="fill:#2980b9;stroke:#2980b9;stroke-width:0.3;" x="443.877519731" xlink:href="#mbacb0b4fa1" y="210.599767657"/>
     <use style="fill:#2980b9;stroke:#2980b9;stroke-width:0.3;" x="444.668061845" xlink:href="#mbacb0b4fa1" y="210.59999192"/>
     <use style="fill:#2980b9;stroke:#2980b9;stroke-width:0.3;" x="446.211243369" xlink:href="#mbacb0b4fa1" y="210.599995622"/>
     <use style="fill:#2980b9;stroke:#2980b9;stroke-width:0.3;" x="448.815700608" xlink:href="#mbacb0b4fa1" y="210.599751848"/>
     <use style="fill:#2980b9;stroke:#2980b9;stroke-width:0.3;" x="451.100692198" xlink:href="#mbacb0b4fa1" y="210.595304369"/>
     <use style="fill:#2980b9;stroke:#2980b9;stroke-width:0.3;" x="452.405628154" xlink:href="#mbacb0b4fa1" y="210.598205111"/>
     <use style="fill:#2980b9;stroke:#2980b9;stroke-width:0.3;" x="452.762996507" xlink:href="#mbacb0b4fa1" y="210.599979793"/>
     <use style="fill:#2980b9;stroke:#2980b9;stroke-width:0.3;" x="453.104120844" xlink:href="#mbacb0b4fa1" y="210.599350414"/>
     <use style="fill:#2980b9;stroke:#2980b9;stroke-width:0.3;" x="454.582326304" xlink:href="#mbacb0b4fa1" y="208.1827644"/>
     <use style="fill:#2980b9;stroke:#2980b9;stroke-width:0.3;" x="455.053402769" xlink:href="#mbacb0b4fa1" y="210.599768352"/>
     <use style="fill:#2980b9;stroke:#2980b9;stroke-width:0.3;" x="460.386854703" xlink:href="#mbacb0b4fa1" y="210.599986329"/>
     <use style="fill:#2980b9;stroke:#2980b9;stroke-width:0.3;" x="468.097347652" xlink:href="#mbacb0b4fa1" y="210.01380036"/>
     <use style="fill:#2980b9;stroke:#2980b9;stroke-width:0.3;" x="468.795840342" xlink:href="#mbacb0b4fa1" y="210.562556724"/>
     <use style="fill:#2980b9;stroke:#2980b9;stroke-width:0.3;" x="469.364380903" xlink:href="#mbacb0b4fa1" y="210.599527854"/>
     <use style="fill:#2980b9;stroke:#2980b9;stroke-width:0.3;" x="475.986524777" xlink:href="#mbacb0b4fa1" y="210.599995965"/>
     <use style="fill:#2980b9;stroke:#2980b9;stroke-width:0.3;" x="482.679059387" xlink:href="#mbacb0b4fa1" y="210.595998163"/>
     <use style="fill:#2980b9;stroke:#2980b9;stroke-width:0.3;" x="490.292088239" xlink:href="#mbacb0b4fa1" y="210.599992056"/>
     <use style="fill:#2980b9;stroke:#2980b9;stroke-width:0.3;" x="494.098602665" xlink:href="#mbacb0b4fa1" y="210.599949675"/>
     <use style="fill:#2980b9;stroke:#2980b9;stroke-width:0.3;" x="523.310758183" xlink:href="#mbacb0b4fa1" y="210.599999166"/>
     <use style="fill:#2980b9;stroke:#2980b9;stroke-width:0.3;" x="533.604049683" xlink:href="#mbacb0b4fa1" y="210.574899756"/>
     <use style="fill:#2980b9;stroke:#2980b9;stroke-width:0.3;" x="534.416250485" xlink:href="#mbacb0b4fa1" y="210.599996609"/>
     <use style="fill:#2980b9;stroke:#2980b9;stroke-width:0.3;" x="536.008164057" xlink:href="#mbacb0b4fa1" y="210.599900784"/>
     <use style="fill:#2980b9;stroke:#2980b9;stroke-width:0.3;" x="542.955188252" xlink:href="#mbacb0b4fa1" y="210.599026599"/>
     <use style="fill:#2980b9;stroke:#2980b9;stroke-width:0.3;" x="553.578774744" xlink:href="#mbacb0b4fa1" y="210.599928514"/>
     <use style="fill:#2980b9;stroke:#2980b9;stroke-width:0.3;" x="554.732099884" xlink:href="#mbacb0b4fa1" y="210.599993717"/>
     <use style="fill:#2980b9;stroke:#2980b9;stroke-width:0.3;" x="554.916198732" xlink:href="#mbacb0b4fa1" y="210.599826516"/>
     <use style="fill:#2980b9;stroke:#2980b9;stroke-width:0.3;" x="564.841292535" xlink:href="#mbacb0b4fa1" y="210.599988656"/>
     <use style="fill:#2980b9;stroke:#2980b9;stroke-width:0.3;" x="574.441506016" xlink:href="#mbacb0b4fa1" y="210.599980615"/>
     <use style="fill:#2980b9;stroke:#2980b9;stroke-width:0.3;" x="574.706824945" xlink:href="#mbacb0b4fa1" y="210.599911671"/>
     <use style="fill:#2980b9;stroke:#2980b9;stroke-width:0.3;" x="575.25912149" xlink:href="#mbacb0b4fa1" y="210.598790562"/>
     <use style="fill:#2980b9;stroke:#2980b9;stroke-width:0.3;" x="575.340341571" xlink:href="#mbacb0b4fa1" y="210.59999658"/>
     <use style="fill:#2980b9;stroke:#2980b9;stroke-width:0.3;" x="576.049663605" xlink:href="#mbacb0b4fa1" y="210.599997619"/>
     <use style="fill:#2980b9;stroke:#2980b9;stroke-width:0.3;" x="577.782358649" xlink:href="#mbacb0b4fa1" y="210.599789715"/>
     <use style="fill:#2980b9;stroke:#2980b9;stroke-width:0.3;" x="578.145141674" xlink:href="#mbacb0b4fa1" y="210.599964548"/>
     <use style="fill:#2980b9;stroke:#2980b9;stroke-width:0.3;" x="578.204703066" xlink:href="#mbacb0b4fa1" y="210.59999593"/>
     <use style="fill:#2980b9;stroke:#2980b9;stroke-width:0.3;" x="581.074479234" xlink:href="#mbacb0b4fa1" y="210.599998224"/>
     <use style="fill:#2980b9;stroke:#2980b9;stroke-width:0.3;" x="581.193602018" xlink:href="#mbacb0b4fa1" y="210.59970552"/>
     <use style="fill:#2980b9;stroke:#2980b9;stroke-width:0.3;" x="581.545555699" xlink:href="#mbacb0b4fa1" y="210.593392308"/>
     <use style="fill:#2980b9;stroke:#2980b9;stroke-width:0.3;" x="581.84336266" xlink:href="#mbacb0b4fa1" y="210.599997178"/>
     <use style="fill:#2980b9;stroke:#2980b9;stroke-width:0.3;" x="582.953370423" xlink:href="#mbacb0b4fa1" y="210.599994822"/>
     <use style="fill:#2980b9;stroke:#2980b9;stroke-width:0.3;" x="583.115810584" xlink:href="#mbacb0b4fa1" y="210.599992846"/>
     <use style="fill:#2980b9;stroke:#2980b9;stroke-width:0.3;" x="583.164542632" xlink:href="#mbacb0b4fa1" y="210.59999572"/>
     <use style="fill:#2980b9;stroke:#2980b9;stroke-width:0.3;" x="583.2674214" xlink:href="#mbacb0b4fa1" y="210.599976061"/>
     <use style="fill:#2980b9;stroke:#2980b9;stroke-width:0.3;" x="584.69148014" xlink:href="#mbacb0b4fa1" y="210.599979141"/>
     <use style="fill:#2980b9;stroke:#2980b9;stroke-width:0.3;" x="585.222117997" xlink:href="#mbacb0b4fa1" y="210.599940454"/>
     <use style="fill:#2980b9;stroke:#2980b9;stroke-width:0.3;" x="585.460363566" xlink:href="#mbacb0b4fa1" y="210.599998471"/>
     <use style="fill:#2980b9;stroke:#2980b9;stroke-width:0.3;" x="588.638776038" xlink:href="#mbacb0b4fa1" y="210.599998915"/>
     <use style="fill:#2980b9;stroke:#2980b9;stroke-width:0.3;" x="588.974485703" xlink:href="#mbacb0b4fa1" y="210.599844592"/>
     <use style="fill:#2980b9;stroke:#2980b9;stroke-width:0.3;" x="590.84796222" xlink:href="#mbacb0b4fa1" y="210.595292482"/>
     <use style="fill:#2980b9;stroke:#2980b9;stroke-width:0.3;" x="591.086207789" xlink:href="#mbacb0b4fa1" y="210.5998887"/>
     <use style="fill:#2980b9;stroke:#2980b9;stroke-width:0.3;" x="594.55701255" xlink:href="#mbacb0b4fa1" y="210.599939324"/>
     <use style="fill:#2980b9;stroke:#2980b9;stroke-width:0.3;" x="594.876478199" xlink:href="#mbacb0b4fa1" y="208.4251104"/>
     <use style="fill:#2980b9;stroke:#2980b9;stroke-width:0.3;" x="595.271749256" xlink:href="#mbacb0b4fa1" y="59.90088"/>
     <use style="fill:#2980b9;stroke:#2980b9;stroke-width:0.3;" x="595.851119162" xlink:href="#mbacb0b4fa1" y="210.597438449"/>
     <use style="fill:#2980b9;stroke:#2980b9;stroke-width:0.3;" x="596.132682106" xlink:href="#mbacb0b4fa1" y="210.599988348"/>
     <use style="fill:#2980b9;stroke:#2980b9;stroke-width:0.3;" x="596.955712253" xlink:href="#mbacb0b4fa1" y="210.599998124"/>
     <use style="fill:#2980b9;stroke:#2980b9;stroke-width:0.3;" x="597.979085263" xlink:href="#mbacb0b4fa1" y="210.599966534"/>
     <use style="fill:#2980b9;stroke:#2980b9;stroke-width:0.3;" x="598.022402639" xlink:href="#mbacb0b4fa1" y="210.599974782"/>
     <use style="fill:#2980b9;stroke:#2980b9;stroke-width:0.3;" x="598.038646655" xlink:href="#mbacb0b4fa1" y="210.588192563"/>
     <use style="fill:#2980b9;stroke:#2980b9;stroke-width:0.3;" x="598.087378704" xlink:href="#mbacb0b4fa1" y="196.1551644"/>
     <use style="fill:#2980b9;stroke:#2980b9;stroke-width:0.3;" x="598.585528529" xlink:href="#mbacb0b4fa1" y="210.599957062"/>
     <use style="fill:#2980b9;stroke:#2980b9;stroke-width:0.3;" x="604.108493984" xlink:href="#mbacb0b4fa1" y="210.599332289"/>
     <use style="fill:#2980b9;stroke:#2980b9;stroke-width:0.3;" x="606.009043861" xlink:href="#mbacb0b4fa1" y="210.599994532"/>
     <use style="fill:#2980b9;stroke:#2980b9;stroke-width:0.3;" x="607.460175961" xlink:href="#mbacb0b4fa1" y="210.599617993"/>
     <use style="fill:#2980b9;stroke:#2980b9;stroke-width:0.3;" x="613.497535257" xlink:href="#mbacb0b4fa1" y="210.599920866"/>
     <use style="fill:#2980b9;stroke:#2980b9;stroke-width:0.3;" x="613.670804761" xlink:href="#mbacb0b4fa1" y="210.597904374"/>
     <use style="fill:#2980b9;stroke:#2980b9;stroke-width:0.3;" x="615.138180877" xlink:href="#mbacb0b4fa1" y="210.599991565"/>
     <use style="fill:#2980b9;stroke:#2980b9;stroke-width:0.3;" x="617.796784836" xlink:href="#mbacb0b4fa1" y="210.599976341"/>
     <use style="fill:#2980b9;stroke:#2980b9;stroke-width:0.3;" x="620.769439772" xlink:href="#mbacb0b4fa1" y="210.599946209"/>
     <use style="fill:#2980b9;stroke:#2980b9;stroke-width:0.3;" x="620.931879933" xlink:href="#mbacb0b4fa1" y="210.59592737"/>
     <use style="fill:#2980b9;stroke:#2980b9;stroke-width:0.3;" x="620.937294605" xlink:href="#mbacb0b4fa1" y="210.599827339"/>
     <use style="fill:#2980b9;stroke:#2980b9;stroke-width:0.3;" x="620.942709277" xlink:href="#mbacb0b4fa1" y="210.596612788"/>
     <use style="fill:#2980b9;stroke:#2980b9;stroke-width:0.3;" x="620.958953293" xlink:href="#mbacb0b4fa1" y="210.590208847"/>
     <use style="fill:#2980b9;stroke:#2980b9;stroke-width:0.3;" x="621.029344029" xlink:href="#mbacb0b4fa1" y="210.599163545"/>
     <use style="fill:#2980b9;stroke:#2980b9;stroke-width:0.3;" x="621.051002717" xlink:href="#mbacb0b4fa1" y="210.599544711"/>
     <use style="fill:#2980b9;stroke:#2980b9;stroke-width:0.3;" x="621.337980334" xlink:href="#mbacb0b4fa1" y="210.599975216"/>
     <use style="fill:#2980b9;stroke:#2980b9;stroke-width:0.3;" x="621.35422435" xlink:href="#mbacb0b4fa1" y="210.599874201"/>
     <use style="fill:#2980b9;stroke:#2980b9;stroke-width:0.3;" x="621.38129771" xlink:href="#mbacb0b4fa1" y="210.59997967"/>
     <use style="fill:#2980b9;stroke:#2980b9;stroke-width:0.3;" x="621.413785742" xlink:href="#mbacb0b4fa1" y="210.599999084"/>
     <use style="fill:#2980b9;stroke:#2980b9;stroke-width:0.3;" x="621.419200414" xlink:href="#mbacb0b4fa1" y="210.599990363"/>
     <use style="fill:#2980b9;stroke:#2980b9;stroke-width:0.3;" x="621.522079182" xlink:href="#mbacb0b4fa1" y="210.599987477"/>
     <use style="fill:#2980b9;stroke:#2980b9;stroke-width:0.3;" x="621.868618191" xlink:href="#mbacb0b4fa1" y="210.599858897"/>
     <use style="fill:#2980b9;stroke:#2980b9;stroke-width:0.3;" x="623.341408979" xlink:href="#mbacb0b4fa1" y="202.1898216"/>
     <use style="fill:#2980b9;stroke:#2980b9;stroke-width:0.3;" x="623.709606676" xlink:href="#mbacb0b4fa1" y="210.599997003"/>
     <use style="fill:#2980b9;stroke:#2980b9;stroke-width:0.3;" x="625.149909432" xlink:href="#mbacb0b4fa1" y="210.599996623"/>
     <use style="fill:#2980b9;stroke:#2980b9;stroke-width:0.3;" x="626.860945789" xlink:href="#mbacb0b4fa1" y="210.599973777"/>
     <use style="fill:#2980b9;stroke:#2980b9;stroke-width:0.3;" x="628.620714193" xlink:href="#mbacb0b4fa1" y="210.5999199"/>
     <use style="fill:#2980b9;stroke:#2980b9;stroke-width:0.3;" x="633.158209341" xlink:href="#mbacb0b4fa1" y="197.0882472"/>
     <use style="fill:#2980b9;stroke:#2980b9;stroke-width:0.3;" x="633.813384655" xlink:href="#mbacb0b4fa1" y="210.479472996"/>
     <use style="fill:#2980b9;stroke:#2980b9;stroke-width:0.3;" x="634.728464226" xlink:href="#mbacb0b4fa1" y="210.479193912"/>
     <use style="fill:#2980b9;stroke:#2980b9;stroke-width:0.3;" x="634.798854962" xlink:href="#mbacb0b4fa1" y="209.74810896"/>
     <use style="fill:#2980b9;stroke:#2980b9;stroke-width:0.3;" x="635.898033381" xlink:href="#mbacb0b4fa1" y="210.599998187"/>
     <use style="fill:#2980b9;stroke:#2980b9;stroke-width:0.3;" x="638.518734636" xlink:href="#mbacb0b4fa1" y="210.59981522"/>
     <use style="fill:#2980b9;stroke:#2980b9;stroke-width:0.3;" x="640.045672144" xlink:href="#mbacb0b4fa1" y="210.599993843"/>
     <use style="fill:#2980b9;stroke:#2980b9;stroke-width:0.3;" x="640.673774098" xlink:href="#mbacb0b4fa1" y="210.599950698"/>
     <use style="fill:#2980b9;stroke:#2980b9;stroke-width:0.3;" x="641.334364083" xlink:href="#mbacb0b4fa1" y="210.599844699"/>
     <use style="fill:#2980b9;stroke:#2980b9;stroke-width:0.3;" x="641.372266787" xlink:href="#mbacb0b4fa1" y="210.595297115"/>
     <use style="fill:#2980b9;stroke:#2980b9;stroke-width:0.3;" x="644.853900893" xlink:href="#mbacb0b4fa1" y="210.599996305"/>
     <use style="fill:#2980b9;stroke:#2980b9;stroke-width:0.3;" x="645.774395135" xlink:href="#mbacb0b4fa1" y="210.599978176"/>
     <use style="fill:#2980b9;stroke:#2980b9;stroke-width:0.3;" x="646.922305602" xlink:href="#mbacb0b4fa1" y="210.596009645"/>
     <use style="fill:#2980b9;stroke:#2980b9;stroke-width:0.3;" x="648.866172855" xlink:href="#mbacb0b4fa1" y="210.598477743"/>
     <use style="fill:#2980b9;stroke:#2980b9;stroke-width:0.3;" x="658.238970113" xlink:href="#mbacb0b4fa1" y="210.59952179"/>
     <use style="fill:#2980b9;stroke:#2980b9;stroke-width:0.3;" x="659.776736965" xlink:href="#mbacb0b4fa1" y="210.599999216"/>
     <use style="fill:#2980b9;stroke:#2980b9;stroke-width:0.3;" x="659.787566309" xlink:href="#mbacb0b4fa1" y="210.59978957"/>
     <use style="fill:#2980b9;stroke:#2980b9;stroke-width:0.3;" x="661.72601889" xlink:href="#mbacb0b4fa1" y="210.599927741"/>
     <use style="fill:#2980b9;stroke:#2980b9;stroke-width:0.3;" x="670.860570578" xlink:href="#mbacb0b4fa1" y="210.599980144"/>
     <use style="fill:#2980b9;stroke:#2980b9;stroke-width:0.3;" x="671.142133523" xlink:href="#mbacb0b4fa1" y="210.599563657"/>
     <use style="fill:#2980b9;stroke:#2980b9;stroke-width:0.3;" x="671.607795316" xlink:href="#mbacb0b4fa1" y="210.599337446"/>
     <use style="fill:#2980b9;stroke:#2980b9;stroke-width:0.3;" x="672.761120455" xlink:href="#mbacb0b4fa1" y="210.599994898"/>
     <use style="fill:#2980b9;stroke:#2980b9;stroke-width:0.3;" x="673.779078794" xlink:href="#mbacb0b4fa1" y="210.599996396"/>
     <use style="fill:#2980b9;stroke:#2980b9;stroke-width:0.3;" x="678.045840342" xlink:href="#mbacb0b4fa1" y="210.599994602"/>
     <use style="fill:#2980b9;stroke:#2980b9;stroke-width:0.3;" x="681.110544702" xlink:href="#mbacb0b4fa1" y="210.599989885"/>
     <use style="fill:#2980b9;stroke:#2980b9;stroke-width:0.3;" x="684.982035192" xlink:href="#mbacb0b4fa1" y="210.599995999"/>
     <use style="fill:#2980b9;stroke:#2980b9;stroke-width:0.3;" x="685.550575754" xlink:href="#mbacb0b4fa1" y="210.599407882"/>
     <use style="fill:#2980b9;stroke:#2980b9;stroke-width:0.3;" x="688.344546513" xlink:href="#mbacb0b4fa1" y="210.59991051"/>
     <use style="fill:#2980b9;stroke:#2980b9;stroke-width:0.3;" x="702.888355544" xlink:href="#mbacb0b4fa1" y="210.597945168"/>
     <use style="fill:#2980b9;stroke:#2980b9;stroke-width:0.3;" x="704.036266011" xlink:href="#mbacb0b4fa1" y="210.599900469"/>
     <use style="fill:#2980b9;stroke:#2980b9;stroke-width:0.3;" x="704.306999612" xlink:href="#mbacb0b4fa1" y="210.599970708"/>
     <use style="fill:#2980b9;stroke:#2980b9;stroke-width:0.3;" x="704.366561004" xlink:href="#mbacb0b4fa1" y="210.599935132"/>
     <use style="fill:#2980b9;stroke:#2980b9;stroke-width:0.3;" x="704.680611981" xlink:href="#mbacb0b4fa1" y="210.59999522"/>
     <use style="fill:#2980b9;stroke:#2980b9;stroke-width:0.3;" x="708.525029111" xlink:href="#mbacb0b4fa1" y="70.707156"/>
     <use style="fill:#2980b9;stroke:#2980b9;stroke-width:0.3;" x="709.949087851" xlink:href="#mbacb0b4fa1" y="210.599994302"/>
     <use style="fill:#2980b9;stroke:#2980b9;stroke-width:0.3;" x="710.495969724" xlink:href="#mbacb0b4fa1" y="210.599998973"/>
     <use style="fill:#2980b9;stroke:#2980b9;stroke-width:0.3;" x="716.224692716" xlink:href="#mbacb0b4fa1" y="89.778936"/>
     <use style="fill:#2980b9;stroke:#2980b9;stroke-width:0.3;" x="716.311327468" xlink:href="#mbacb0b4fa1" y="210.599942071"/>
     <use style="fill:#2980b9;stroke:#2980b9;stroke-width:0.3;" x="720.166573942" xlink:href="#mbacb0b4fa1" y="210.599969232"/>
     <use style="fill:#2980b9;stroke:#2980b9;stroke-width:0.3;" x="723.566987967" xlink:href="#mbacb0b4fa1" y="210.599865726"/>
     <use style="fill:#2980b9;stroke:#2980b9;stroke-width:0.3;" x="724.146357873" xlink:href="#mbacb0b4fa1" y="210.599989536"/>
     <use style="fill:#2980b9;stroke:#2980b9;stroke-width:0.3;" x="726.036078406" xlink:href="#mbacb0b4fa1" y="210.595942346"/>
     <use style="fill:#2980b9;stroke:#2980b9;stroke-width:0.3;" x="726.063151766" xlink:href="#mbacb0b4fa1" y="210.59987442"/>
     <use style="fill:#2980b9;stroke:#2980b9;stroke-width:0.3;" x="730.497768146" xlink:href="#mbacb0b4fa1" y="210.59999495"/>
     <use style="fill:#2980b9;stroke:#2980b9;stroke-width:0.3;" x="730.806404451" xlink:href="#mbacb0b4fa1" y="210.03138156"/>
     <use style="fill:#2980b9;stroke:#2980b9;stroke-width:0.3;" x="733.264665545" xlink:href="#mbacb0b4fa1" y="210.59795289"/>
     <use style="fill:#2980b9;stroke:#2980b9;stroke-width:0.3;" x="736.129027041" xlink:href="#mbacb0b4fa1" y="210.599993829"/>
     <use style="fill:#2980b9;stroke:#2980b9;stroke-width:0.3;" x="737.136156036" xlink:href="#mbacb0b4fa1" y="196.1551332"/>
     <use style="fill:#2980b9;stroke:#2980b9;stroke-width:0.3;" x="740.043834907" xlink:href="#mbacb0b4fa1" y="210.599963596"/>
     <use style="fill:#2980b9;stroke:#2980b9;stroke-width:0.3;" x="741.630333808" xlink:href="#mbacb0b4fa1" y="210.596038583"/>
     <use style="fill:#2980b9;stroke:#2980b9;stroke-width:0.3;" x="748.317453746" xlink:href="#mbacb0b4fa1" y="210.56390238"/>
     <use style="fill:#2980b9;stroke:#2980b9;stroke-width:0.3;" x="750.726982792" xlink:href="#mbacb0b4fa1" y="210.595291483"/>
     <use style="fill:#2980b9;stroke:#2980b9;stroke-width:0.3;" x="751.322596714" xlink:href="#mbacb0b4fa1" y="210.599948141"/>
     <use style="fill:#2980b9;stroke:#2980b9;stroke-width:0.3;" x="752.427189805" xlink:href="#mbacb0b4fa1" y="209.97734472"/>
     <use style="fill:#2980b9;stroke:#2980b9;stroke-width:0.3;" x="752.692508733" xlink:href="#mbacb0b4fa1" y="210.446583516"/>
     <use style="fill:#2980b9;stroke:#2980b9;stroke-width:0.3;" x="754.766328115" xlink:href="#mbacb0b4fa1" y="210.599997943"/>
     <use style="fill:#2980b9;stroke:#2980b9;stroke-width:0.3;" x="755.10203778" xlink:href="#mbacb0b4fa1" y="208.9515792"/>
     <use style="fill:#2980b9;stroke:#2980b9;stroke-width:0.3;" x="755.865506534" xlink:href="#mbacb0b4fa1" y="210.59977699"/>
     <use style="fill:#2980b9;stroke:#2980b9;stroke-width:0.3;" x="763.424388666" xlink:href="#mbacb0b4fa1" y="210.59953139"/>
     <use style="fill:#2980b9;stroke:#2980b9;stroke-width:0.3;" x="766.413287618" xlink:href="#mbacb0b4fa1" y="210.599998216"/>
     <use style="fill:#2980b9;stroke:#2980b9;stroke-width:0.3;" x="768.660376504" xlink:href="#mbacb0b4fa1" y="210.599991657"/>
     <use style="fill:#2980b9;stroke:#2980b9;stroke-width:0.3;" x="768.665791176" xlink:href="#mbacb0b4fa1" y="210.599966191"/>
     <use style="fill:#2980b9;stroke:#2980b9;stroke-width:0.3;" x="768.833646009" xlink:href="#mbacb0b4fa1" y="210.599983456"/>
     <use style="fill:#2980b9;stroke:#2980b9;stroke-width:0.3;" x="773.143724932" xlink:href="#mbacb0b4fa1" y="210.599996459"/>
     <use style="fill:#2980b9;stroke:#2980b9;stroke-width:0.3;" x="774.188756631" xlink:href="#mbacb0b4fa1" y="210.599993558"/>
     <use style="fill:#2980b9;stroke:#2980b9;stroke-width:0.3;" x="777.594585328" xlink:href="#mbacb0b4fa1" y="210.599997911"/>
    </g>
   </g>
   <g id="PathCollection_2">
    <defs>
     <path d="M 0 -2.236068 
L -0.502029 -0.690983 
L -2.126627 -0.690983 
L -0.812299 0.263932 
L -1.314328 1.809017 
L -0 0.854102 
L 1.314328 1.809017 
L 0.812299 0.263932 
L 2.126627 -0.690983 
L 0.502029 -0.690983 
z
" id="m49ab51e650" style="stroke:#d91e18;stroke-width:0.3;"/>
    </defs>
    <g clip-path="url(#p234efec601)">
     <use style="fill:#d91e18;stroke:#d91e18;stroke-width:0.3;" x="595.271749256" xlink:href="#m49ab51e650" y="59.90088"/>
     <use style="fill:#d91e18;stroke:#d91e18;stroke-width:0.3;" x="708.525029111" xlink:href="#m49ab51e650" y="70.707156"/>
     <use style="fill:#d91e18;stroke:#d91e18;stroke-width:0.3;" x="716.224692716" xlink:href="#m49ab51e650" y="89.778936"/>
     <use style="fill:#d91e18;stroke:#d91e18;stroke-width:0.3;" x="737.136156036" xlink:href="#m49ab51e650" y="196.1551332"/>
     <use style="fill:#d91e18;stroke:#d91e18;stroke-width:0.3;" x="598.087378704" xlink:href="#m49ab51e650" y="196.1551644"/>
     <use style="fill:#d91e18;stroke:#d91e18;stroke-width:0.3;" x="633.158209341" xlink:href="#m49ab51e650" y="197.0882472"/>
     <use style="fill:#d91e18;stroke:#d91e18;stroke-width:0.3;" x="623.341408979" xlink:href="#m49ab51e650" y="202.1898216"/>
     <use style="fill:#d91e18;stroke:#d91e18;stroke-width:0.3;" x="454.582326304" xlink:href="#m49ab51e650" y="208.1827644"/>
     <use style="fill:#d91e18;stroke:#d91e18;stroke-width:0.3;" x="594.876478199" xlink:href="#m49ab51e650" y="208.4251104"/>
     <use style="fill:#d91e18;stroke:#d91e18;stroke-width:0.3;" x="388.138886014" xlink:href="#m49ab51e650" y="208.8813012"/>
     <use style="fill:#d91e18;stroke:#d91e18;stroke-width:0.3;" x="755.10203778" xlink:href="#m49ab51e650" y="208.9515792"/>
    </g>
   </g>
   <g id="patch_3">
    <path d="M 108 23.4 
L 777.6 23.4 
" style="fill:none;"/>
   </g>
   <g id="patch_4">
    <path d="M 777.6 210.6 
L 777.6 23.4 
" style="fill:none;"/>
   </g>
   <g id="patch_5">
    <path d="M 108 210.6 
L 777.6 210.6 
" style="fill:none;"/>
   </g>
   <g id="patch_6">
    <path d="M 108 210.6 
L 108 23.4 
" style="fill:none;"/>
   </g>
   <g id="legend_1">
    <g id="patch_7">
     <path d="M 580.515313 45.284063 
L 600.515313 45.284063 
L 600.515313 38.284063 
L 580.515313 38.284063 
z
" style="fill:#d91e18;stroke:#d91e18;stroke-linejoin:miter;stroke-width:0.3;"/>
    </g>
    <g id="text_16">
     <!-- Credible Set: 99.0% -->
     <defs>
      <path d="M 40.234375 0 
L 40.234375 6.546875 
Q 35.296875 -1.171875 25.734375 -1.171875 
Q 19.53125 -1.171875 14.328125 2.25 
Q 9.125 5.671875 6.265625 11.796875 
Q 3.421875 17.921875 3.421875 25.875 
Q 3.421875 33.640625 6 39.96875 
Q 8.59375 46.296875 13.765625 49.65625 
Q 18.953125 53.03125 25.34375 53.03125 
Q 30.03125 53.03125 33.6875 51.046875 
Q 37.359375 49.078125 39.65625 45.90625 
L 39.65625 71.578125 
L 48.390625 71.578125 
L 48.390625 0 
z
M 12.453125 25.875 
Q 12.453125 15.921875 16.640625 10.984375 
Q 20.84375 6.0625 26.5625 6.0625 
Q 32.328125 6.0625 36.34375 10.765625 
Q 40.375 15.484375 40.375 25.140625 
Q 40.375 35.796875 36.265625 40.765625 
Q 32.171875 45.75 26.171875 45.75 
Q 20.3125 45.75 16.375 40.96875 
Q 12.453125 36.1875 12.453125 25.875 
" id="ArialMT-64"/>
      <path d="M 4.5 23 
L 13.421875 23.78125 
Q 14.0625 18.40625 16.375 14.96875 
Q 18.703125 11.53125 23.578125 9.40625 
Q 28.46875 7.28125 34.578125 7.28125 
Q 39.984375 7.28125 44.140625 8.890625 
Q 48.296875 10.5 50.3125 13.296875 
Q 52.34375 16.109375 52.34375 19.4375 
Q 52.34375 22.796875 50.390625 25.3125 
Q 48.4375 27.828125 43.953125 29.546875 
Q 41.0625 30.671875 31.203125 33.03125 
Q 21.34375 35.40625 17.390625 37.5 
Q 12.25 40.1875 9.734375 44.15625 
Q 7.234375 48.140625 7.234375 53.078125 
Q 7.234375 58.5 10.296875 63.203125 
Q 13.375 67.921875 19.28125 70.359375 
Q 25.203125 72.796875 32.421875 72.796875 
Q 40.375 72.796875 46.453125 70.234375 
Q 52.546875 67.671875 55.8125 62.6875 
Q 59.078125 57.71875 59.328125 51.421875 
L 50.25 50.734375 
Q 49.515625 57.515625 45.28125 60.984375 
Q 41.0625 64.453125 32.8125 64.453125 
Q 24.21875 64.453125 20.28125 61.296875 
Q 16.359375 58.15625 16.359375 53.71875 
Q 16.359375 49.859375 19.140625 47.359375 
Q 21.875 44.875 33.421875 42.265625 
Q 44.96875 39.65625 49.265625 37.703125 
Q 55.515625 34.8125 58.484375 30.390625 
Q 61.46875 25.984375 61.46875 20.21875 
Q 61.46875 14.5 58.203125 9.4375 
Q 54.9375 4.390625 48.796875 1.578125 
Q 42.671875 -1.21875 35.015625 -1.21875 
Q 25.296875 -1.21875 18.71875 1.609375 
Q 12.15625 4.4375 8.421875 10.125 
Q 4.6875 15.828125 4.5 23 
" id="ArialMT-53"/>
      <path d="M 58.796875 25.09375 
L 68.265625 22.703125 
Q 65.28125 11.03125 57.546875 4.90625 
Q 49.8125 -1.21875 38.625 -1.21875 
Q 27.046875 -1.21875 19.796875 3.484375 
Q 12.546875 8.203125 8.765625 17.140625 
Q 4.984375 26.078125 4.984375 36.328125 
Q 4.984375 47.515625 9.25 55.828125 
Q 13.53125 64.15625 21.40625 68.46875 
Q 29.296875 72.796875 38.765625 72.796875 
Q 49.515625 72.796875 56.828125 67.328125 
Q 64.15625 61.859375 67.046875 51.953125 
L 57.71875 49.75 
Q 55.21875 57.5625 50.484375 61.125 
Q 45.75 64.703125 38.578125 64.703125 
Q 30.328125 64.703125 24.78125 60.734375 
Q 19.234375 56.78125 16.984375 50.109375 
Q 14.75 43.453125 14.75 36.375 
Q 14.75 27.25 17.40625 20.4375 
Q 20.0625 13.625 25.671875 10.25 
Q 31.296875 6.890625 37.84375 6.890625 
Q 45.796875 6.890625 51.3125 11.46875 
Q 56.84375 16.0625 58.796875 25.09375 
" id="ArialMT-43"/>
      <path d="M 5.46875 16.546875 
L 13.921875 17.328125 
Q 14.984375 11.375 18.015625 8.6875 
Q 21.046875 6 25.78125 6 
Q 29.828125 6 32.875 7.859375 
Q 35.9375 9.71875 37.890625 12.8125 
Q 39.84375 15.921875 41.15625 21.1875 
Q 42.484375 26.46875 42.484375 31.9375 
Q 42.484375 32.515625 42.4375 33.6875 
Q 39.796875 29.5 35.234375 26.875 
Q 30.671875 24.265625 25.34375 24.265625 
Q 16.453125 24.265625 10.296875 30.703125 
Q 4.15625 37.15625 4.15625 47.703125 
Q 4.15625 58.59375 10.578125 65.234375 
Q 17 71.875 26.65625 71.875 
Q 33.640625 71.875 39.421875 68.109375 
Q 45.21875 64.359375 48.21875 57.390625 
Q 51.21875 50.4375 51.21875 37.25 
Q 51.21875 23.53125 48.234375 15.40625 
Q 45.265625 7.28125 39.375 3.03125 
Q 33.5 -1.21875 25.59375 -1.21875 
Q 17.1875 -1.21875 11.859375 3.4375 
Q 6.546875 8.109375 5.46875 16.546875 
M 41.453125 48.140625 
Q 41.453125 55.71875 37.421875 60.15625 
Q 33.40625 64.59375 27.734375 64.59375 
Q 21.875 64.59375 17.53125 59.8125 
Q 13.1875 55.03125 13.1875 47.40625 
Q 13.1875 40.578125 17.3125 36.296875 
Q 21.4375 32.03125 27.484375 32.03125 
Q 33.59375 32.03125 37.515625 36.296875 
Q 41.453125 40.578125 41.453125 48.140625 
" id="ArialMT-39"/>
      <path d="M 9.03125 41.84375 
L 9.03125 51.859375 
L 19.046875 51.859375 
L 19.046875 41.84375 
z
M 9.03125 0 
L 9.03125 10.015625 
L 19.046875 10.015625 
L 19.046875 0 
z
" id="ArialMT-3a"/>
      <path d="M 5.8125 54.390625 
Q 5.8125 62.0625 9.671875 67.421875 
Q 13.53125 72.796875 20.84375 72.796875 
Q 27.59375 72.796875 32 67.984375 
Q 36.421875 63.1875 36.421875 53.859375 
Q 36.421875 44.78125 31.953125 39.875 
Q 27.484375 34.96875 20.953125 34.96875 
Q 14.453125 34.96875 10.125 39.796875 
Q 5.8125 44.625 5.8125 54.390625 
M 21.09375 66.75 
Q 17.828125 66.75 15.65625 63.90625 
Q 13.484375 61.078125 13.484375 53.515625 
Q 13.484375 46.625 15.671875 43.8125 
Q 17.875 41.015625 21.09375 41.015625 
Q 24.421875 41.015625 26.59375 43.84375 
Q 28.765625 46.6875 28.765625 54.203125 
Q 28.765625 61.140625 26.5625 63.9375 
Q 24.359375 66.75 21.09375 66.75 
M 21.140625 -2.640625 
L 60.296875 72.796875 
L 67.4375 72.796875 
L 28.421875 -2.640625 
z
M 52.09375 16.796875 
Q 52.09375 24.515625 55.953125 29.859375 
Q 59.8125 35.203125 67.1875 35.203125 
Q 73.921875 35.203125 78.34375 30.390625 
Q 82.765625 25.59375 82.765625 16.265625 
Q 82.765625 7.171875 78.296875 2.265625 
Q 73.828125 -2.640625 67.234375 -2.640625 
Q 60.75 -2.640625 56.421875 2.21875 
Q 52.09375 7.078125 52.09375 16.796875 
M 67.4375 29.15625 
Q 64.109375 29.15625 61.9375 26.3125 
Q 59.765625 23.484375 59.765625 15.921875 
Q 59.765625 9.078125 61.953125 6.25 
Q 64.15625 3.421875 67.390625 3.421875 
Q 70.75 3.421875 72.921875 6.25 
Q 75.09375 9.078125 75.09375 16.609375 
Q 75.09375 23.53125 72.890625 26.34375 
Q 70.703125 29.15625 67.4375 29.15625 
" id="ArialMT-25"/>
     </defs>
     <g style="fill:#262626;" transform="translate(608.5153125 45.2840625)scale(0.18 -0.18)">
      <use xlink:href="#ArialMT-43"/>
      <use x="72.216796875" xlink:href="#ArialMT-72"/>
      <use x="105.517578125" xlink:href="#ArialMT-65"/>
      <use x="161.1328125" xlink:href="#ArialMT-64"/>
      <use x="216.748046875" xlink:href="#ArialMT-69"/>
      <use x="238.96484375" xlink:href="#ArialMT-62"/>
      <use x="294.580078125" xlink:href="#ArialMT-6c"/>
      <use x="316.796875" xlink:href="#ArialMT-65"/>
      <use x="372.412109375" xlink:href="#ArialMT-20"/>
      <use x="400.1953125" xlink:href="#ArialMT-53"/>
      <use x="466.89453125" xlink:href="#ArialMT-65"/>
      <use x="522.509765625" xlink:href="#ArialMT-74"/>
      <use x="550.29296875" xlink:href="#ArialMT-3a"/>
      <use x="578.076171875" xlink:href="#ArialMT-20"/>
      <use x="605.859375" xlink:href="#ArialMT-39"/>
      <use x="661.474609375" xlink:href="#ArialMT-39"/>
      <use x="717.08984375" xlink:href="#ArialMT-2e"/>
      <use x="744.873046875" xlink:href="#ArialMT-30"/>
      <use x="800.48828125" xlink:href="#ArialMT-25"/>
     </g>
    </g>
   </g>
  </g>
 </g>
 <defs>
  <clipPath id="p234efec601">
   <rect height="187.2" width="669.6" x="108.0" y="23.4"/>
  </clipPath>
 </defs>
</svg>
